<svg width="482" height="482" viewBox="0 0 482 482" fill="none" xmlns="http://www.w3.org/2000/svg">
<path d="M89.3816 249.676C88.6972 244.702 95.7151 240.614 100.95 240.19C103.466 239.988 106.078 240.373 108.459 239.544C113.626 237.742 115.68 231.071 120.721 228.94C124.481 227.35 128.819 228.767 132.472 230.608C136.126 232.449 139.722 234.753 143.799 235.014C147.347 235.245 151.203 233.924 154.307 235.66C156.621 236.951 157.826 239.612 159.956 241.183C162.086 242.755 164.776 243.053 167.35 243.188C169.924 243.323 172.623 243.352 174.975 244.432C177.327 245.512 179.275 248.008 178.831 250.553L89.3816 249.676Z" fill="#EBEBEB"/>
<path d="M42.8979 277.853C42.5026 274.961 46.5418 272.648 49.5688 272.397C51.0148 272.281 52.5186 272.503 53.8875 272.031C56.8566 270.99 58.0423 267.163 60.944 265.938C63.1033 265.022 65.6001 265.842 67.692 266.902C69.7838 267.963 71.8661 269.293 74.2182 269.438C76.2523 269.573 78.4695 268.811 80.2529 269.814C81.5832 270.556 82.2773 272.089 83.5016 272.985C84.776 273.776 86.2534 274.178 87.7528 274.142C89.2466 274.103 90.7344 274.345 92.139 274.855C92.8354 275.127 93.4256 275.616 93.8216 276.25C94.2176 276.884 94.3984 277.629 94.3369 278.374L42.8979 277.853Z" fill="#F5F5F5"/>
<path d="M50.9762 164.776C50.34 160.159 56.847 156.36 61.7441 155.975C64.077 155.782 66.4966 156.139 68.7138 155.367C73.5338 153.7 75.4618 147.511 80.089 145.544C83.5787 144.069 87.6082 145.38 90.9919 147.087C94.3755 148.793 97.7398 150.943 101.509 151.174C104.796 151.386 108.373 150.21 111.255 151.772C113.405 152.977 114.523 155.445 116.499 156.9C118.476 158.356 120.963 158.635 123.363 158.761C125.763 158.886 128.25 158.915 130.439 159.918C132.627 160.92 134.43 163.234 133.977 165.596L50.9762 164.776Z" fill="#F5F5F5"/>
<path d="M159.812 79.462C160.145 79.8932 160.502 80.3051 160.882 80.696C161.853 81.8064 162.731 82.9963 163.504 84.2531C166.064 88.4101 167.4 93.2046 167.36 98.0865C167.355 98.1442 167.355 98.2023 167.36 98.26H167.832C168.574 93.468 170.803 89.0303 174.204 85.5738C175.631 84.1742 177.187 82.9122 178.851 81.8046C178.851 81.8046 178.716 81.8046 178.475 81.9781C178.234 82.1516 177.867 82.2866 177.434 82.5758C176.18 83.3665 175.017 84.2909 173.963 85.3328C170.425 88.7896 168.108 93.3031 167.36 98.1926H167.842V98.019C167.873 93.0442 166.448 88.1689 163.745 83.9928C162.936 82.7676 162.013 81.6217 160.988 80.5706C160.631 80.1754 160.313 79.9151 160.11 79.7223C160.023 79.6222 159.923 79.5347 159.812 79.462Z" fill="#E0E0E0"/>
<path d="M392.927 397.005C384.473 397.005 374.958 403.974 368.268 409.382C361.578 414.791 354.367 420.854 345.758 420.893C340.938 420.893 336.273 418.965 331.491 418.001C326.71 417.037 321.08 417.557 317.995 421.326C314.737 425.288 315.633 431.111 314.255 436.056C311.507 445.879 300.277 450.68 290.155 451.76C277.107 453.13 263.943 450.661 252.279 444.655C245.068 440.925 238.137 435.757 230.03 435.304C220.872 434.803 212.466 440.5 203.347 441.513C184.876 443.547 169.77 426.628 151.57 422.898C140.552 420.642 129.205 423.38 117.975 423.92C105.33 424.441 92.7243 422.2 81.0339 417.354C69.3435 412.508 58.8496 405.172 50.2826 395.858L392.927 397.005Z" fill="#F5F5F5"/>
<path d="M218.019 384.203C217.546 383.566 238.263 350.839 238.263 350.839L253.108 348.487L268.397 368.48L274.895 365.434L320.309 383.171L352.121 342.616L356.941 347.667L369.771 328.725L377.956 346.857L390.575 378.139L399.096 371.767L422.82 395.867H195.953C195.953 395.867 218.501 384.849 218.019 384.203Z" fill="#EBEBEB"/>
<path d="M264.869 35.4752C277.459 43.5343 286.202 56.876 299.496 63.759C313.3 70.8637 329.688 69.8032 345.112 70.9504C360.536 72.0976 377.811 77.0043 385.031 90.751C392.869 105.683 385.909 125.628 395.134 139.732C405.738 155.994 431.544 155.223 443.729 170.368C451.962 180.615 451.586 195.036 451.663 208.185C451.991 266.45 465.795 322.448 448.453 378.061L402.798 321.87L426.821 272.07L403.222 232.131L344.755 204.175L329.331 187.575L320.877 163.012L285.306 129.648L245.782 89.2664L224.323 41.9822C223.301 41.9822 187.922 31.3107 187.922 31.3107C214.452 25.064 241.964 20.7839 264.869 35.4752Z" fill="#EBEBEB"/>
<path d="M97.2957 197.822C97.2957 197.822 98.1247 197.533 99.6768 197.186C101.862 196.711 104.114 196.626 106.328 196.936C109.616 197.365 112.721 198.7 115.294 200.792C118.44 203.361 120.661 206.888 121.617 210.836V210.952L121.801 211.665L122.08 210.981C123.62 207.237 126.263 204.049 129.657 201.842C132.421 200.034 135.606 198.971 138.902 198.758C141.124 198.594 143.358 198.796 145.515 199.355C147.038 199.76 147.848 200.117 147.867 200.069C147.68 199.963 147.487 199.87 147.289 199.789C146.726 199.553 146.15 199.35 145.563 199.182C142.868 198.392 140.036 198.189 137.256 198.584C134.476 198.98 131.813 199.966 129.445 201.476C125.953 203.718 123.234 206.979 121.656 210.817H122.119V210.711C121.14 206.658 118.849 203.041 115.602 200.425C112.962 198.298 109.774 196.961 106.406 196.569C104.15 196.285 101.862 196.423 99.6575 196.974C99.0652 197.125 98.4825 197.312 97.9127 197.533C97.6952 197.602 97.4877 197.699 97.2957 197.822Z" fill="#263238"/>
<path d="M31.2238 129.716C31.2238 129.716 31.6961 129.581 32.5444 129.408C33.7411 129.166 34.9701 129.13 36.1787 129.302C37.9707 129.546 39.6595 130.283 41.0566 131.432C42.7695 132.834 43.9779 134.756 44.498 136.908V136.965L44.6908 137.679L44.9608 137.004C45.7974 134.959 47.2364 133.218 49.0867 132.01C50.5907 131.023 52.3236 130.438 54.1188 130.314C55.3347 130.216 56.5584 130.313 57.7434 130.603C58.5821 130.815 59.0255 130.998 59.0448 130.96C59.0641 130.921 58.9484 130.883 58.7363 130.786C58.4253 130.641 58.1029 130.522 57.7723 130.429C56.5792 130.056 55.3287 129.899 54.0802 129.967C52.2098 130.059 50.3957 130.637 48.8168 131.644C46.8785 132.884 45.3703 134.692 44.498 136.821H44.9511V136.753C44.4061 134.501 43.1276 132.493 41.3168 131.046C40.0884 130.072 38.6504 129.397 37.1162 129.074C35.582 128.751 33.9938 128.79 32.477 129.186C32.1476 129.27 31.8253 129.38 31.513 129.514C31.3202 129.649 31.2141 129.697 31.2238 129.716Z" fill="#263238"/>
<path d="M101.527 88.8809C101.527 88.8809 101.989 89.4014 102.809 90.3365C107.826 96.0282 110.586 103.359 110.569 110.947V111.159H111.051C111.521 108.043 112.536 105.035 114.049 102.271C116.112 98.4778 119.03 95.217 122.571 92.7465C123.583 92.0524 124.161 91.6957 124.142 91.6572C123.987 91.716 123.839 91.7902 123.699 91.8789C123.419 92.0428 122.976 92.2452 122.465 92.5923C120.989 93.5365 119.616 94.6317 118.368 95.8602C116.508 97.6903 114.921 99.7778 113.654 102.059C112.096 104.859 111.052 107.914 110.569 111.082H111.051V110.87C111.093 104.988 109.418 99.2226 106.231 94.2793C105.275 92.7886 104.178 91.3939 102.953 90.1148C102.539 89.6617 102.163 89.3436 101.932 89.1508C101.809 89.0441 101.673 88.9534 101.527 88.8809Z" fill="#263238"/>
<path d="M92.4866 318.333L92.7854 318.256L93.6434 317.967C94.3953 317.726 95.4943 317.311 96.9403 316.887C100.998 315.601 105.145 314.615 109.347 313.937C110.677 313.735 112.075 313.503 113.531 313.368C114.986 313.233 116.519 313.098 118.1 312.983C125.191 312.601 132.3 313.211 139.221 314.795C143.122 315.657 146.936 316.873 150.616 318.429C152.544 319.191 154.327 320.136 156.12 321.013C157.913 321.89 159.62 322.941 161.249 323.953C164.42 325.903 167.475 328.037 170.397 330.344C175.351 334.257 179.84 338.723 183.777 343.657L184.982 345.209C185.358 345.73 185.705 346.25 186.043 346.752C186.71 347.683 187.328 348.648 187.894 349.644C188.424 350.608 188.944 351.417 189.369 352.237C189.793 353.056 190.101 353.818 190.429 354.502L190.872 355.466C190.988 355.784 191.085 356.074 191.191 356.353L191.682 357.732C191.808 358.098 191.914 358.378 191.991 358.58C192.024 358.678 192.062 358.775 192.106 358.869C192.106 358.869 192.106 358.763 192.029 358.57C191.952 358.378 191.865 358.079 191.75 357.712L191.287 356.315L190.988 355.428L190.554 354.464C190.236 353.779 189.889 353.008 189.513 352.179C189.137 351.35 188.549 350.502 188.067 349.557C187.506 348.563 186.894 347.597 186.236 346.665C185.889 346.164 185.551 345.633 185.175 345.113L183.97 343.542C180.064 338.552 175.587 334.039 170.628 330.094C167.704 327.765 164.643 325.615 161.461 323.654C159.832 322.594 158.068 321.726 156.313 320.704C154.559 319.683 152.708 318.863 150.789 318.111C147.09 316.542 143.253 315.318 139.327 314.458C135.666 313.642 131.952 313.081 128.212 312.78C124.837 312.536 121.45 312.507 118.071 312.694C116.49 312.809 114.957 312.896 113.492 313.098C112.027 313.301 110.6 313.474 109.299 313.686C105.091 314.391 100.943 315.415 96.8921 316.752C95.4461 317.195 94.3568 317.629 93.6145 317.899L92.7662 318.217L92.4866 318.333Z" fill="#1DA1F2"/>
<path d="M70.2661 325.746C70.8523 325.537 71.4172 325.272 71.9531 324.955C72.9749 324.444 74.392 323.731 75.9826 323.027C77.5732 322.323 79.0288 321.678 80.0892 321.234C80.6744 321.023 81.2418 320.765 81.7859 320.463C81.178 320.587 80.5839 320.772 80.0121 321.012C78.9324 321.398 77.4479 321.976 75.8573 322.719C74.2667 323.461 72.8496 324.203 71.8567 324.772C71.295 325.042 70.7621 325.368 70.2661 325.746Z" fill="#1DA1F2"/>
<path d="M37.0556 391.279C37.1053 391.044 37.1247 390.805 37.1135 390.565C37.1135 390.026 37.1135 389.38 37.1617 388.637C37.1617 386.902 37.2292 384.685 37.2774 382.217C37.3256 379.749 37.4316 377.542 37.4798 375.807C37.4798 375.045 37.528 374.399 37.5376 373.879C37.5642 373.642 37.5642 373.402 37.5376 373.165C37.4647 373.393 37.4257 373.63 37.422 373.869C37.3738 374.332 37.3159 374.997 37.2485 375.797C37.1328 377.436 37.0075 379.701 36.94 382.217C36.8725 384.733 36.8821 387.037 36.94 388.637C36.94 389.457 36.9882 390.122 37.0171 390.565C36.9979 390.804 37.0109 391.044 37.0556 391.279Z" fill="#1DA1F2"/>
<path d="M124.144 303.979H124.298L124.751 304.027L126.506 304.2L127.769 304.326L129.263 304.519C130.343 304.663 131.567 304.798 132.907 305.049L135.018 305.415C135.751 305.54 136.503 305.724 137.283 305.887C138.855 306.196 140.513 306.649 142.258 307.092C149.817 309.16 157.082 312.179 163.88 316.077C165.432 316.993 166.926 317.841 168.257 318.738C168.922 319.171 169.587 319.576 170.185 320L171.939 321.234C173.067 322.006 174.022 322.777 174.889 323.432L176.084 324.348L177.048 325.158L178.417 326.276L178.774 326.556C178.861 326.613 178.899 326.652 178.909 326.642L178.803 326.527L178.466 326.218L177.145 325.052L176.181 324.223C175.824 323.924 175.429 323.615 175.005 323.259C174.147 322.584 173.192 321.793 172.113 321.013L170.368 319.759C169.761 319.326 169.105 318.911 168.44 318.468C167.119 317.561 165.625 316.704 164.073 315.768C160.665 313.827 157.143 312.091 153.527 310.573C149.893 309.096 146.175 307.834 142.393 306.794C140.638 306.36 138.98 305.916 137.389 305.618C136.609 305.463 135.847 305.29 135.114 305.164L132.994 304.817C131.644 304.576 130.41 304.47 129.34 304.335C128.8 304.278 128.299 304.21 127.836 304.172L126.564 304.085L124.809 303.979H124.347H124.144Z" fill="#1DA1F2"/>
<path d="M74.4306 403.406C74.4306 403.502 94.906 403.58 120.143 403.58C145.381 403.58 165.856 403.502 165.856 403.406C165.856 403.31 145.4 403.223 120.143 403.223C94.8867 403.223 74.4306 403.3 74.4306 403.406Z" fill="#1DA1F2"/>
<path d="M99.4079 409.056C99.4079 409.152 109.327 409.239 121.58 409.239C133.832 409.239 143.752 409.152 143.752 409.056C143.752 408.959 133.832 408.882 121.58 408.882C109.327 408.882 99.4079 408.959 99.4079 409.056Z" fill="#1DA1F2"/>
<path d="M107.419 415.185C107.419 415.282 112.065 415.359 117.791 415.359C123.517 415.359 128.164 415.282 128.164 415.185C128.164 415.089 123.517 415.002 117.791 415.002C112.065 415.002 107.419 415.089 107.419 415.185Z" fill="#1DA1F2"/>
<path d="M52.7021 363.264L101.731 363.746C101.795 363.002 101.616 362.258 101.222 361.623C100.827 360.989 100.238 360.5 99.5429 360.228C98.1367 359.724 96.65 359.482 95.1567 359.514C93.6587 359.549 92.1824 359.151 90.9054 358.367C89.6811 357.461 88.9774 355.928 87.6567 355.186C85.8733 354.222 83.6562 354.945 81.6125 354.81C79.27 354.666 77.1973 353.335 75.0958 352.275C72.9943 351.214 70.5072 350.405 68.3478 351.311C65.4558 352.535 64.2701 356.372 61.301 357.403C59.9321 357.876 58.409 357.664 56.9822 357.779C56.4933 357.822 56.0093 357.909 55.5362 358.04C63.0808 345.356 74.2409 335.215 87.5862 328.915C100.931 322.616 115.854 320.445 130.441 322.681C145.028 324.917 158.615 331.458 169.461 341.466C180.306 351.473 187.917 364.492 191.316 378.852H190.564C188.491 378.737 186.322 378.476 184.654 377.242C182.987 376.008 181.974 373.859 180.133 372.827C177.646 371.439 174.571 372.49 171.737 372.316C168.469 372.104 165.587 370.253 162.675 368.788C159.764 367.323 156.284 366.185 153.276 367.458C149.256 369.154 147.608 374.485 143.482 375.922C141.554 376.587 139.481 376.278 137.476 376.442C133.264 376.78 127.653 380.057 128.193 384.029L192.434 384.665C193.008 388.401 193.295 392.174 193.292 395.954H45.1347C45.1122 384.621 47.7017 373.435 52.7021 363.264Z" fill="#1DA1F2"/>
<path d="M20.3886 395.808C20.3886 395.953 97.5086 396.059 192.578 396.059C287.648 396.059 364.787 395.953 364.787 395.808C364.787 395.664 287.667 395.558 192.578 395.558C97.4893 395.558 20.3886 395.673 20.3886 395.808Z" fill="#263238"/>
<path d="M38.5606 67.7982C38.5606 67.7982 38.9848 67.6922 39.7367 67.5379C40.8008 67.329 41.8923 67.2997 42.9661 67.4512C44.5519 67.6871 46.0425 68.354 47.2752 69.3792C48.784 70.6135 49.8499 72.3054 50.3118 74.1992V74.2474L50.4949 74.9704L50.7745 74.2859C51.5141 72.4792 52.7847 70.9396 54.4184 69.8708C55.7509 68.9974 57.2833 68.4766 58.8721 68.3574C60.3496 68.2768 61.8294 68.4663 63.239 68.9165C62.9022 68.689 62.5264 68.5256 62.1304 68.4345C61.0717 68.1004 59.9614 67.96 58.8528 68.0199C57.192 68.0934 55.5797 68.602 54.1774 69.4949C52.4491 70.5981 51.1027 72.2071 50.3214 74.1028H50.7841V74.0449C50.3032 72.0392 49.1667 70.2514 47.5547 68.9647C46.2455 67.9217 44.6682 67.27 43.0046 67.0849C41.8972 66.9543 40.775 67.0361 39.6981 67.3259C39.2961 67.4214 38.912 67.5808 38.5606 67.7982Z" fill="#E0E0E0"/>
<path d="M311.853 155.252C311.879 155.38 311.914 155.506 311.959 155.628L312.326 156.708C312.625 157.672 313.193 159.05 313.724 160.882C315.338 166.028 316.569 171.286 317.406 176.614C317.965 179.979 318.37 183.7 318.611 187.7C318.846 191.964 318.846 196.238 318.611 200.502C317.506 220.159 310.94 239.119 299.649 255.248C297.212 258.754 294.58 262.121 291.764 265.331C289.084 268.32 286.481 271.009 283.965 273.313C279.998 276.993 275.761 280.37 271.288 283.416C269.736 284.534 268.444 285.267 267.615 285.836L266.651 286.462L266.333 286.684C266.455 286.635 266.571 286.573 266.68 286.501L267.644 285.922C268.493 285.382 269.804 284.669 271.375 283.58C275.878 280.589 280.142 277.253 284.129 273.602C286.674 271.308 289.296 268.618 292.005 265.64C294.84 262.425 297.495 259.056 299.958 255.547C311.328 239.377 317.925 220.337 318.997 200.599C319.238 196.319 319.238 192.028 318.997 187.749C318.707 183.729 318.312 180.037 317.724 176.624C316.851 171.287 315.562 166.027 313.868 160.891C313.309 159.06 312.711 157.691 312.384 156.746C312.21 156.293 312.075 155.937 311.969 155.676C311.947 155.531 311.908 155.389 311.853 155.252Z" fill="#455A64"/>
<path d="M273.632 312.587C273.632 312.587 273.738 312.76 273.969 313.098L275.01 314.544C275.974 315.816 277.247 317.725 279.117 320.058C284.285 326.718 289.909 333.012 295.948 338.894L298.898 341.786C299.92 342.75 300.99 343.714 302.07 344.678C304.2 346.674 306.572 348.535 308.953 350.607C313.85 354.55 319.229 358.56 325.129 362.445C331.309 366.489 337.718 370.174 344.322 373.483C351.429 377.003 358.714 380.153 366.147 382.92C381.271 388.716 397.068 392.577 413.161 394.411C420.064 395.137 427.005 395.43 433.945 395.288C439.848 395.145 445.74 394.691 451.596 393.929L451.403 393.746C450.575 401.3 451.21 408.942 453.273 416.255C453.988 418.909 454.89 421.509 455.972 424.035C455.972 424.035 455.972 423.861 455.808 423.524L455.278 422.039C454.825 420.719 454.16 418.772 453.485 416.207C451.486 408.892 450.904 401.261 451.769 393.727V393.515H451.547C445.703 394.247 439.824 394.678 433.935 394.806C427.013 394.914 420.091 394.592 413.209 393.842C397.162 392.001 381.41 388.153 366.32 382.39C358.903 379.633 351.635 376.492 344.543 372.982C337.951 369.69 331.553 366.024 325.379 362.002C319.489 358.146 314.11 354.145 309.213 350.231C306.832 348.197 304.46 346.317 302.33 344.331C301.25 343.367 300.171 342.403 299.149 341.439L296.199 338.615C290.146 332.762 284.491 326.511 279.271 319.904C277.343 317.6 276.042 315.71 275.087 314.457L274.008 313.03C273.776 312.741 273.632 312.587 273.632 312.587Z" fill="#455A64"/>
<path d="M245.434 193.378C245.434 193.378 248.085 186.428 263.943 184.51L272.493 165.451L285.286 129.639L294.791 138.874L292.978 144.08C290.993 149.786 293.393 171.621 287.561 180.393C281.729 189.166 278.885 193.378 278.885 193.378L253.744 216.9L245.434 202.903V193.378Z" fill="#FFBE9D"/>
<path d="M166.975 221.122C167.167 221.312 167.397 221.46 167.65 221.556C168.391 221.82 169.206 221.789 169.925 221.469C170.502 221.239 171.021 220.884 171.446 220.431C171.87 219.978 172.191 219.437 172.383 218.847C172.839 217.283 172.97 215.643 172.769 214.027C172.692 212.292 172.499 210.267 173.463 208.465C174.427 206.662 176.432 205.573 178.109 203.847C178.977 202.959 179.636 201.889 180.037 200.714C180.413 199.505 180.668 198.262 180.799 197.003C180.973 195.74 181.108 194.448 181.397 193.147C181.645 191.869 182.19 190.667 182.987 189.638C184.645 187.594 187.287 186.611 188.935 184.509C190.388 182.464 191.225 180.046 191.345 177.54C191.577 175.197 191.548 172.97 191.856 170.927C192.066 169.031 192.727 167.213 193.784 165.625C195.379 163.337 197.743 161.698 200.445 161.007C201.435 160.777 202.446 160.647 203.463 160.621C203.201 160.583 202.937 160.563 202.672 160.564C201.906 160.564 201.143 160.652 200.397 160.824C197.607 161.451 195.148 163.089 193.495 165.422C192.385 167.047 191.68 168.915 191.442 170.869C191.114 172.941 191.123 175.187 190.882 177.491C190.765 179.916 189.96 182.257 188.559 184.239C187.026 186.167 184.395 187.131 182.592 189.349C181.753 190.439 181.178 191.71 180.915 193.06C180.649 194.334 180.449 195.621 180.317 196.916C180.192 198.145 179.947 199.359 179.584 200.541C179.221 201.65 178.615 202.664 177.811 203.51C176.23 205.149 174.167 206.296 173.135 208.253C172.665 209.177 172.405 210.195 172.374 211.231C172.345 212.164 172.371 213.097 172.451 214.027C172.66 215.59 172.559 217.179 172.152 218.702C171.979 219.262 171.688 219.777 171.299 220.215C170.91 220.652 170.431 221.001 169.896 221.238C169.218 221.559 168.445 221.618 167.727 221.402C167.47 221.326 167.219 221.233 166.975 221.122Z" fill="#263238"/>
<path d="M203.732 160.737C200.445 160.371 197.302 162.578 195.576 165.403C193.851 168.228 193.282 171.573 192.791 174.85C192.299 178.128 191.827 181.473 190.284 184.394C188.877 187.064 186.592 189.31 185.773 192.221C184.809 195.663 185.994 199.664 184.172 202.748C183.025 204.676 180.818 205.939 179.94 208.031C179.063 210.123 179.699 212.697 178.726 214.779C178.07 216.167 176.798 217.17 176.094 218.548C175.13 220.544 175.641 222.915 176.181 225.065L182.032 227.263L184.539 219.098L184.221 228.506L189.098 229.663L193.764 230.753C193.764 230.753 194.979 218.78 196.001 214.499C197.022 210.219 197.765 210.643 199.018 206.932C200.271 203.221 198.806 198.044 199.461 195.181C200.117 192.318 201.389 190.515 202.758 186.9C204.127 183.285 203.597 180.981 203.77 176.942C203.944 172.903 207.01 167.909 207.01 167.909L203.732 160.737Z" fill="#263238"/>
<path d="M204.638 169.297C203.067 167.17 202.261 164.575 202.353 161.932C202.332 161.072 202.496 160.217 202.835 159.426C203.009 159.028 203.274 158.677 203.609 158.4C203.944 158.124 204.339 157.93 204.763 157.835C205.184 157.751 205.622 157.818 205.999 158.024C206.376 158.231 206.669 158.563 206.826 158.963H207.443C206.556 159.927 206.864 161.441 207.221 162.694L208.609 167.591C208.792 168.003 208.879 168.451 208.864 168.902C208.849 169.353 208.732 169.795 208.522 170.194C208.262 170.474 207.924 170.67 207.551 170.758C207.179 170.846 206.789 170.82 206.431 170.685C205.709 170.409 205.086 169.926 204.638 169.297Z" fill="#1DA1F2"/>
<path d="M207.212 149.585C207.974 145.063 210.104 142.769 213.555 139.742C217.688 136.27 222.879 134.308 228.275 134.18C233.78 134.035 237.067 134.103 241.367 137.554C243.658 139.594 245.43 142.152 246.534 145.015C249.426 151.464 248.963 158.829 248.086 165.828C247.208 172.827 245.724 179.449 239.988 183.566L215.888 179.835C210.576 177.907 208.803 171.795 207.299 166.339C205.795 160.883 206.296 155.205 207.212 149.585Z" fill="#263238"/>
<path d="M247.266 154.077C246.88 148.746 236.903 140.716 230.29 141.332L226.27 142.615C222.468 143.289 219.007 145.235 216.456 148.134C213.904 151.032 212.412 154.712 212.225 158.569L211.955 164.266L210.991 199.52C218.821 201.325 226.768 202.584 234.773 203.289L235.621 188.279C235.621 188.279 245.01 186.949 246.89 175.93C247.806 170.445 247.748 161.432 247.266 154.077Z" fill="#FFBE9D"/>
<path d="M243.247 162.848C243.242 163.218 243.095 163.571 242.837 163.835C242.578 164.099 242.228 164.253 241.859 164.266C241.679 164.277 241.498 164.253 241.327 164.194C241.157 164.135 240.999 164.043 240.865 163.923C240.73 163.803 240.621 163.657 240.543 163.494C240.466 163.331 240.421 163.154 240.413 162.974C240.415 162.604 240.561 162.249 240.82 161.985C241.079 161.72 241.431 161.567 241.801 161.557C241.981 161.545 242.162 161.569 242.332 161.628C242.503 161.687 242.66 161.779 242.795 161.899C242.929 162.02 243.039 162.166 243.116 162.328C243.194 162.491 243.238 162.668 243.247 162.848Z" fill="#263238"/>
<path d="M244.856 158.743C244.683 158.926 243.623 158.116 242.099 158.106C240.576 158.097 239.448 158.839 239.285 158.646C239.121 158.453 239.391 158.232 239.882 157.885C240.545 157.438 241.329 157.206 242.128 157.219C242.922 157.226 243.692 157.486 244.326 157.962C244.799 158.328 244.963 158.656 244.856 158.743Z" fill="#263238"/>
<path d="M229.682 162.848C229.683 163.218 229.539 163.572 229.281 163.837C229.024 164.102 228.673 164.255 228.304 164.266C228.124 164.277 227.943 164.253 227.772 164.194C227.602 164.135 227.445 164.043 227.31 163.923C227.175 163.803 227.066 163.657 226.988 163.494C226.911 163.331 226.866 163.154 226.858 162.974C226.855 162.604 226.998 162.248 227.256 161.982C227.514 161.717 227.866 161.564 228.236 161.557C228.416 161.545 228.597 161.569 228.768 161.628C228.938 161.687 229.096 161.779 229.23 161.899C229.365 162.02 229.474 162.166 229.552 162.328C229.629 162.491 229.674 162.668 229.682 162.848Z" fill="#263238"/>
<path d="M229.886 158.848C229.712 159.031 228.652 158.222 227.129 158.202C225.606 158.183 224.478 158.945 224.314 158.752C224.15 158.559 224.41 158.337 224.912 157.99C225.573 157.541 226.358 157.309 227.158 157.325C227.951 157.331 228.721 157.592 229.356 158.067C229.818 158.424 229.973 158.762 229.886 158.848Z" fill="#263238"/>
<path d="M235.283 170.213C236.088 169.97 236.92 169.831 237.76 169.799C238.156 169.799 238.522 169.683 238.589 169.423C238.632 169.022 238.548 168.617 238.348 168.266C237.992 167.302 237.616 166.338 237.23 165.287C235.678 161.055 234.57 157.575 234.743 157.508C234.917 157.44 236.305 160.834 237.847 165.066L238.917 168.064C239.157 168.537 239.221 169.08 239.1 169.596C239.043 169.733 238.955 169.855 238.843 169.952C238.731 170.048 238.598 170.118 238.454 170.156C238.237 170.209 238.014 170.238 237.789 170.242C236.956 170.336 236.114 170.326 235.283 170.213Z" fill="#263238"/>
<path d="M235.593 188.279C230.27 188.3 225.044 186.867 220.477 184.134C220.477 184.134 223.996 191.913 235.438 191.046L235.593 188.279Z" fill="#EB996E"/>
<path d="M234.599 173.877C234.312 173.508 233.936 173.217 233.506 173.034C233.076 172.85 232.606 172.778 232.141 172.826C231.806 172.854 231.48 172.949 231.182 173.104C230.884 173.26 230.62 173.473 230.406 173.732C230.198 173.983 230.073 174.291 230.047 174.615C230.021 174.94 230.096 175.264 230.261 175.545C230.502 175.823 230.821 176.023 231.177 176.118C231.533 176.212 231.909 176.197 232.257 176.075C232.969 175.828 233.624 175.441 234.185 174.937C234.36 174.82 234.511 174.669 234.628 174.494C234.685 174.41 234.715 174.311 234.715 174.209C234.715 174.108 234.685 174.009 234.628 173.925" fill="#EB996E"/>
<path d="M230.782 171.216C231.033 171.216 231.013 172.854 232.421 174.04C233.828 175.226 235.583 175.072 235.592 175.303C235.602 175.534 235.197 175.621 234.455 175.631C233.485 175.632 232.546 175.29 231.804 174.667C231.088 174.068 230.635 173.214 230.541 172.286C230.483 171.592 230.676 171.196 230.782 171.216Z" fill="#263238"/>
<path d="M230.281 154.549C230.127 154.964 228.613 154.742 226.82 154.935C225.027 155.127 223.581 155.6 223.35 155.224C223.244 155.05 223.495 154.665 224.083 154.26C224.868 153.779 225.752 153.482 226.669 153.392C227.586 153.302 228.511 153.42 229.375 153.739C230.021 154.019 230.349 154.347 230.281 154.549Z" fill="#263238"/>
<path d="M244.856 153.517C244.586 153.855 243.545 153.517 242.282 153.45C241.019 153.382 239.949 153.662 239.699 153.295C239.602 153.112 239.766 152.775 240.238 152.447C240.869 152.053 241.607 151.864 242.35 151.907C243.09 151.928 243.805 152.181 244.393 152.63C244.856 152.987 245.01 153.344 244.856 153.517Z" fill="#263238"/>
<path d="M214.355 168.257C214.323 167.701 214.151 167.163 213.854 166.692C213.558 166.221 213.147 165.832 212.66 165.563C212.173 165.293 211.626 165.151 211.07 165.151C210.513 165.15 209.965 165.29 209.478 165.557C208.34 166.251 207.501 167.591 207.656 170.146C208.08 176.942 214.818 175.111 214.818 174.918C214.818 174.725 214.558 171.071 214.355 168.257Z" fill="#FFBE9D"/>
<path d="M212.591 172.47C212.591 172.47 212.475 172.556 212.282 172.662C212.011 172.802 211.696 172.829 211.405 172.74C210.945 172.494 210.559 172.129 210.289 171.683C210.02 171.237 209.875 170.726 209.872 170.204C209.816 169.624 209.889 169.038 210.084 168.488C210.137 168.272 210.24 168.072 210.386 167.904C210.532 167.736 210.716 167.606 210.923 167.524C211.056 167.482 211.199 167.487 211.329 167.537C211.459 167.588 211.568 167.682 211.636 167.804C211.742 167.987 211.704 168.122 211.742 168.132C211.781 168.141 211.887 168.016 211.81 167.736C211.762 167.57 211.656 167.426 211.511 167.332C211.316 167.201 211.077 167.153 210.846 167.197C210.571 167.271 210.319 167.415 210.115 167.614C209.911 167.813 209.761 168.061 209.679 168.334C209.43 168.944 209.334 169.606 209.4 170.262C209.535 171.631 210.316 172.865 211.328 173.087C211.514 173.127 211.706 173.125 211.891 173.082C212.076 173.038 212.249 172.954 212.398 172.836C212.591 172.634 212.62 172.479 212.591 172.47Z" fill="#EB996E"/>
<path d="M210.904 150.085C212.807 146.184 215.945 143.022 219.831 141.091C222.887 139.597 228.758 137.235 231.9 138.507L229.635 141.399C229.443 143.319 228.824 145.172 227.823 146.821C226.822 148.471 225.465 149.876 223.851 150.933C222.145 152.023 220.082 152.803 219.031 154.539C217.546 157.064 218.886 160.467 217.643 163.118C217.19 164.082 216.399 164.94 216.38 166.01C216.38 168.006 218.915 169.114 219.32 171.062C219.725 173.009 217.884 174.571 217.17 176.402C216.832 177.326 216.772 178.328 216.996 179.285C217.221 180.243 217.72 181.114 218.433 181.791C216.997 181.791 215.879 180.403 215.618 178.986C215.486 177.552 215.59 176.106 215.927 174.705C216.255 173.289 216.046 171.802 215.339 170.531C214.568 169.423 213.218 168.883 212.177 168.015C210.679 166.606 209.695 164.736 209.381 162.704C208.479 158.445 209.015 154.007 210.904 150.085Z" fill="#263238"/>
<path d="M241.405 410.154C241.405 410.154 195.461 438.784 195.133 437.975C194.805 437.165 191.403 419.186 191.403 419.186L221.72 390.083C221.72 390.083 242.552 402.191 241.405 410.154Z" fill="#FFBE9D"/>
<path d="M202.44 435.603L201.331 436.268C201.331 436.268 205.014 459.645 201.563 461.978L179.391 424.382L192.183 417.519C192.916 424.681 196.068 430.697 202.44 435.603Z" fill="#1DA1F2"/>
<g opacity="0.6">
<path d="M190.447 423.727C190.121 423.436 189.699 423.276 189.261 423.276C188.824 423.276 188.402 423.436 188.076 423.727C187.76 424.033 187.574 424.449 187.556 424.888C187.538 425.328 187.69 425.758 187.979 426.089C188.329 426.39 188.776 426.556 189.237 426.556C189.699 426.556 190.145 426.39 190.495 426.089C190.784 425.732 190.923 425.277 190.881 424.819C190.84 424.362 190.622 423.939 190.274 423.64" fill="white"/>
</g>
<g opacity="0.6">
<path d="M179.41 424.431L182.485 422.782L202.594 459.414C202.594 459.414 202.855 461.516 201.572 462.017L179.41 424.431Z" fill="white"/>
</g>
<path d="M201.313 436.461C201.129 436.567 200.503 435.7 199.385 435.141C198.266 434.582 197.216 434.562 197.187 434.35C197.158 434.138 198.382 433.791 199.722 434.485C201.062 435.179 201.476 436.403 201.313 436.461Z" fill="#263238"/>
<path d="M202.006 441.367C201.852 441.511 201.042 440.904 199.934 440.731C198.825 440.557 197.861 440.875 197.765 440.731C197.668 440.586 198.632 439.767 200.049 440.046C201.467 440.326 202.18 441.261 202.006 441.367Z" fill="#263238"/>
<path d="M198.584 446.381C198.449 446.236 199.211 445.417 200.512 445.32C201.814 445.224 202.701 445.821 202.595 445.985C202.489 446.149 201.631 445.985 200.59 446.062C199.548 446.14 198.739 446.554 198.584 446.381Z" fill="#263238"/>
<path d="M407.069 288.168C407.069 288.168 358.869 267.558 353.509 264.849C353.509 264.849 343.869 272.966 344.612 282.249V289.209L402.104 304.267L407.069 288.168Z" fill="#FFBE9D"/>
<path d="M404.235 285.729L405.401 286.288C405.401 286.288 422.975 270.45 426.821 272.069L407.454 311.131L394.72 304.151C400.282 299.678 403.598 293.75 404.235 285.729Z" fill="#1DA1F2"/>
<g opacity="0.6">
<path d="M400.831 302.262C400.76 302.694 400.85 303.138 401.085 303.507C401.319 303.877 401.682 304.148 402.103 304.267C402.533 304.356 402.98 304.276 403.353 304.045C403.726 303.814 403.996 303.448 404.108 303.024C404.174 302.566 404.072 302.1 403.823 301.711C403.573 301.321 403.192 301.035 402.749 300.903C402.294 300.861 401.84 300.996 401.481 301.28C401.122 301.563 400.886 301.974 400.821 302.426" fill="white"/>
</g>
<g opacity="0.6">
<path d="M407.454 311.131L404.389 309.444L424.074 272.619C424.074 272.619 425.693 271.26 426.821 272.06L407.454 311.131Z" fill="white"/>
</g>
<path d="M405.574 286.212C405.767 286.308 405.382 287.31 405.574 288.554C405.767 289.798 406.278 290.694 406.114 290.829C405.95 290.964 404.996 290.135 404.842 288.631C404.688 287.127 405.42 286.086 405.574 286.212Z" fill="#263238"/>
<path d="M409.304 282.953C409.507 283.001 409.43 283.984 409.912 285.035C410.394 286.086 411.155 286.693 411.059 286.876C410.962 287.06 409.815 286.655 409.237 285.334C408.658 284.013 409.121 282.866 409.304 282.953Z" fill="#263238"/>
<path d="M415.36 283.059C415.36 283.252 414.232 283.059 413.432 282.037C412.631 281.015 412.66 279.926 412.853 279.926C413.046 279.926 413.335 280.755 414.01 281.574C414.685 282.394 415.437 282.856 415.36 283.059Z" fill="#263238"/>
<path d="M240.412 409.324C240.762 409.682 241.237 409.89 241.737 409.904C242.237 409.919 242.723 409.738 243.092 409.401C246.11 406.75 253.214 400.108 256.588 393.774C260.917 385.609 261.215 365.018 260.367 351.281C259.895 343.569 254.757 323.981 254.757 323.981L252.597 319.315L237.636 279.56L208.89 289.354C208.89 289.354 209.111 306.156 207.926 311.16C206.74 316.163 207.81 324.482 210.432 329.476C213.054 334.469 218.915 337.699 218.915 337.699L222.993 350.982C224.203 353.798 225.155 356.718 225.837 359.707C227.167 365.201 228.295 368.788 228.295 368.788C228.295 368.788 230.608 376.76 230.608 377.464L219.744 389.379L240.441 409.362" fill="#263238"/>
<path d="M252.665 257.803L248.751 251.19V245.415L206.017 246.418L210.403 276.726L252.665 257.803Z" fill="#FFBE9D"/>
<path d="M328.724 292.603C325.418 293.625 297.346 304.682 293.596 306.224C291.09 307.256 285.884 309.704 285.884 309.704C285.884 309.704 271.646 317.04 264.31 320.241C256.974 323.441 256.058 325.976 248.732 325.282C241.405 324.588 236.585 325.282 230.175 317.493C223.764 309.704 221.238 298.213 221.691 291.379L221.643 284.958L261.794 271.462C261.794 271.462 266.373 273.082 266.141 275.829L272.542 272.937C272.502 272.243 272.681 271.553 273.055 270.966C273.429 270.38 273.978 269.926 274.625 269.669C276.157 269.052 299.024 260.203 313.994 254.419C324.065 250.465 335.249 250.417 345.353 254.284C348.245 255.402 350.472 256.646 351.234 257.947C353.943 262.584 353.557 264.907 353.557 264.907L344.573 289.2C344.573 289.2 341.324 291.485 337.776 290.164L335.347 289.055L328.724 292.603Z" fill="#263238"/>
<path d="M266.006 275.627C266.691 284.94 269.776 302.889 274.789 315.267L285.113 310.071C286.376 297.713 280.534 282.337 272.494 272.88L266.006 275.627Z" fill="#455A64"/>
<path d="M222.337 265.284C212.929 269.236 208.957 273.622 208.957 273.622L209.285 298.754L252.077 282.848L261.717 271.444L253.503 257.948C253.503 257.948 240.239 257.765 222.337 265.284Z" fill="#263238"/>
<path d="M253.532 257.985L258.082 265.437C241.019 265.852 224.091 272.185 209.101 284.38L208.956 273.622C208.956 273.622 223.648 258.94 253.532 257.985Z" fill="#455A64"/>
<path d="M231.928 272.166C232.892 271.202 235.447 270.238 236.748 269.814C240.66 268.538 244.658 267.543 248.712 266.835C252.768 266.122 256.928 266.246 260.935 267.201C262.023 267.383 263.011 267.947 263.721 268.792C264.328 269.698 263.817 271.568 262.757 271.887L261.793 271.443C260.99 270.263 259.759 269.444 258.361 269.158C256.909 269.078 255.453 269.143 254.014 269.351C250.572 269.592 248.683 270.161 245.434 270.585C243.092 270.963 240.788 271.55 238.551 272.34C236.623 273.014 233.905 273.111 232.671 274.779L231.928 272.166Z" fill="#1DA1F2"/>
<path d="M233.24 276.312C233.365 276.225 232.7 275.078 232.363 273.497C232.025 271.916 232.151 270.605 232.006 270.605C231.621 271.566 231.576 272.631 231.881 273.622C232.02 274.645 232.498 275.593 233.24 276.312Z" fill="#455A64"/>
<path d="M228.188 279.348C228.314 279.271 227.649 278.114 227.321 276.543C226.993 274.971 227.109 273.651 226.954 273.651C226.579 274.618 226.535 275.682 226.829 276.677C226.973 277.694 227.451 278.633 228.188 279.348Z" fill="#455A64"/>
<path d="M226.878 275.626C226.878 275.626 211.068 284.813 208.562 287.387L208.813 291.474L227.505 278.769C227.2 277.975 226.98 277.151 226.849 276.311" fill="#1DA1F2"/>
<path d="M219.792 342.047C220.047 342.047 220.293 341.945 220.473 341.764C220.654 341.583 220.756 341.338 220.756 341.083C220.756 340.827 220.654 340.582 220.473 340.401C220.293 340.22 220.047 340.119 219.792 340.119C217.979 340.119 213.159 333.631 212.08 329.09C211.203 325.283 211.068 321.08 211.656 315.45C211.944 312.064 212.737 308.74 214.008 305.588C214.422 304.393 214.924 302.985 215.512 301.183C215.878 300.084 216.312 298.551 216.774 296.931C217.314 295.003 217.864 293.075 218.317 291.812C218.935 289.838 219.282 287.788 219.348 285.72C224.438 292.468 232.121 299.573 240.142 302.503C248.924 305.713 259.971 305.694 269.708 302.503C269.951 302.423 270.152 302.249 270.266 302.02C270.381 301.792 270.4 301.527 270.32 301.284C270.239 301.041 270.066 300.84 269.837 300.725C269.608 300.61 269.343 300.591 269.1 300.672C259.759 303.776 249.184 303.805 240.807 300.739C231.88 297.481 223.368 288.814 218.635 281.459C218.508 281.196 218.35 280.95 218.163 280.727C218.004 280.548 217.784 280.435 217.546 280.409C217.308 280.383 217.069 280.447 216.876 280.588C216.682 280.728 216.548 280.936 216.499 281.17C216.45 281.404 216.49 281.648 216.611 281.854L216.977 282.442C217.777 284.284 217.295 288.824 216.447 291.253C215.984 292.574 215.415 294.56 214.875 296.478C214.413 298.078 213.989 299.592 213.632 300.662C213.044 302.436 212.552 303.843 212.138 305.029C210.871 308.298 210.085 311.733 209.805 315.228C209.197 321.07 209.342 325.475 210.267 329.495C211.338 334.122 216.466 342.047 219.792 342.047Z" fill="#E0E0E0"/>
<path d="M333.882 261.109C333.783 261.465 333.722 261.83 333.699 262.199C333.612 262.912 333.516 263.934 333.419 265.206C333.182 268.517 333.131 271.839 333.265 275.155C333.408 278.477 333.785 281.786 334.393 285.055C334.624 286.308 334.846 287.311 335.02 288.005C335.088 288.37 335.198 288.726 335.347 289.065C335.341 288.695 335.296 288.327 335.212 287.967C335.087 287.157 334.923 286.164 334.74 284.997C334.246 281.729 333.925 278.438 333.776 275.136C333.612 271.28 333.689 267.761 333.776 265.226C333.821 264.037 333.86 263.034 333.892 262.218C333.937 261.85 333.933 261.477 333.882 261.109Z" fill="#455A64"/>
<path d="M222.964 350.983C236.865 353.239 249.117 348.891 258.121 338.056L255.711 327.654C247.112 337.94 232.237 342.808 219.291 339.338L222.964 350.983Z" fill="#455A64"/>
<path d="M230.454 377.58C232.919 377.627 235.378 377.824 237.819 378.168C240.231 378.681 242.607 379.347 244.933 380.163C244.347 379.728 243.697 379.387 243.005 379.151C241.371 378.476 239.667 377.982 237.925 377.676C236.186 377.363 234.418 377.237 232.652 377.3C231.91 377.288 231.17 377.383 230.454 377.58Z" fill="#455A64"/>
<path d="M230.58 377.426C230.58 377.503 231.708 376.992 233.53 376.375C235.903 375.579 238.369 375.093 240.866 374.929C243.368 374.786 245.878 374.932 248.347 375.363C250.275 375.691 251.402 376.009 251.431 375.922C251.185 375.78 250.919 375.676 250.641 375.614C249.911 375.372 249.167 375.172 248.414 375.016C245.928 374.469 243.378 374.271 240.837 374.428C238.293 374.593 235.789 375.136 233.405 376.038C232.686 376.319 231.985 376.641 231.303 377.002C231.044 377.11 230.801 377.253 230.58 377.426Z" fill="#455A64"/>
<path d="M214.644 283.107L208.745 307.516C208.205 309.752 207.588 312.124 205.939 313.724C203.221 316.356 198.883 315.961 195.152 315.392C192.974 315.054 190.332 314.322 189.831 312.182C189.701 311.326 189.77 310.452 190.033 309.627C191.473 303.477 192.912 297.323 194.352 291.166C194.727 289.595 195.603 288.188 196.849 287.159C198.094 286.129 199.64 285.533 201.254 285.46C205.719 285.122 210.138 284.33 214.442 283.098" fill="#1DA1F2"/>
<path d="M221.72 296.44C221.694 296.615 221.694 296.794 221.72 296.97C221.72 297.317 221.768 297.818 221.826 298.474C221.997 300.317 222.261 302.151 222.616 303.968C223.145 306.672 223.959 309.313 225.046 311.844C226.383 314.963 228.296 317.802 230.685 320.212C231.927 321.459 233.335 322.529 234.869 323.393C236.306 324.181 237.825 324.808 239.4 325.263C242.059 326.001 244.816 326.326 247.574 326.227C249.434 326.183 251.282 325.918 253.079 325.437C253.567 325.312 254.046 325.158 254.515 324.974C254.689 324.928 254.854 324.857 255.007 324.762C255.007 324.714 254.303 324.964 253.031 325.244C251.24 325.649 249.41 325.859 247.574 325.871C244.851 325.907 242.138 325.536 239.525 324.772C236.321 323.858 233.4 322.151 231.032 319.807C228.688 317.442 226.803 314.664 225.47 311.613C224.371 309.117 223.534 306.513 222.973 303.843C222.472 301.568 222.202 299.698 222.009 298.406C221.922 297.799 221.855 297.307 221.797 296.912C221.788 296.752 221.763 296.594 221.72 296.44Z" fill="#455A64"/>
<path d="M236.103 283.252C236.171 283.31 237.251 282.085 239.217 280.36C240.364 279.34 241.571 278.391 242.832 277.516C244.382 276.454 246.013 275.516 247.71 274.711C250.809 273.261 254.112 272.296 257.504 271.848C260.107 271.51 261.746 271.539 261.746 271.443C261.365 271.367 260.976 271.341 260.589 271.366C259.543 271.341 258.497 271.383 257.456 271.491C254.006 271.835 250.639 272.761 247.498 274.229C245.775 275.054 244.125 276.022 242.562 277.121C241.302 278.03 240.104 279.022 238.976 280.09C238.211 280.804 237.487 281.56 236.807 282.355C236.543 282.63 236.307 282.93 236.103 283.252Z" fill="#455A64"/>
<path d="M231.785 281.778C231.833 281.846 233.115 280.978 235.274 279.725C238.092 278.097 241.027 276.683 244.056 275.493C247.086 274.313 250.194 273.346 253.359 272.601C255.798 272.023 257.321 271.762 257.311 271.637C256.946 271.627 256.581 271.656 256.222 271.724C255.518 271.801 254.516 271.974 253.33 272.215C250.119 272.863 246.971 273.789 243.921 274.982C240.867 276.179 237.928 277.65 235.139 279.378C234.079 280.053 233.211 280.621 232.681 281.046C232.353 281.251 232.052 281.497 231.785 281.778Z" fill="#455A64"/>
<path d="M268.388 297.403C268.598 297.414 268.806 297.356 268.98 297.238C269.154 297.12 269.284 296.947 269.352 296.748C269.824 295.579 270.567 294.538 271.518 293.71C272.47 292.883 273.604 292.292 274.827 291.986C277.437 291.363 280.159 291.38 282.761 292.034C283 292.063 283.242 292.002 283.439 291.861C283.635 291.721 283.771 291.512 283.821 291.275C283.871 291.039 283.83 290.793 283.707 290.585C283.584 290.378 283.387 290.224 283.156 290.154C280.247 289.429 277.205 289.429 274.297 290.154C272.778 290.548 271.374 291.297 270.201 292.339C269.027 293.382 268.119 294.688 267.549 296.15C267.466 296.392 267.482 296.657 267.594 296.886C267.706 297.116 267.905 297.291 268.147 297.375C268.225 297.395 268.306 297.405 268.388 297.403Z" fill="#E0E0E0"/>
<g opacity="0.3">
<path d="M197.697 288.062C198.309 287.794 198.96 287.627 199.625 287.57C204.654 286.846 209.575 285.509 214.278 283.589L214.066 283.859C212.392 286.094 210.249 287.937 207.788 289.257C205.327 290.578 202.607 291.344 199.818 291.503C199.12 291.573 198.414 291.484 197.755 291.243C197.426 291.116 197.14 290.898 196.93 290.615C196.72 290.332 196.595 289.995 196.569 289.643C196.601 289.303 196.722 288.978 196.92 288.7C197.118 288.422 197.386 288.202 197.697 288.062Z" fill="black"/>
</g>
<g opacity="0.3">
<path d="M334.971 288.969C332.163 285.729 330.505 281.65 330.258 277.369C330.01 273.088 331.186 268.846 333.602 265.303C333.4 273.222 333.949 281.143 335.241 288.959" fill="black"/>
</g>
<g opacity="0.3">
<path d="M258.922 341.893C258.922 341.893 248.395 333.217 243.584 329.718C238.774 326.219 230.31 323.751 227.534 316.01C227.534 316.01 231.756 325.399 245.551 326.113C248.75 326.472 251.988 326.024 254.969 324.811L258.922 341.893Z" fill="black"/>
</g>
<g opacity="0.3">
<path d="M252.945 383.671C253.369 384.163 253.793 384.818 253.523 385.407C253.373 385.655 253.14 385.844 252.866 385.939C252.591 386.034 252.292 386.03 252.02 385.927C251.481 385.716 250.997 385.387 250.602 384.963C245.474 380.211 237.897 377.184 230.918 377.608C238.379 375.285 247.865 377.743 252.945 383.671Z" fill="black"/>
</g>
<path d="M205.592 244.085C205.592 244.085 201.736 201.91 205.592 195.249C207.674 191.624 243.593 199.606 243.593 199.606C243.593 199.606 251.469 207.453 254.014 217.98C255.383 223.648 248.712 239.728 248.712 239.728V245.415L206.296 247.748L205.592 244.085Z" fill="#1DA1F2"/>
<g opacity="0.3">
<path d="M219.339 213.092C223.947 213.304 228.304 211.087 232.228 208.658C236.151 206.229 240.046 203.501 244.548 202.488L243.786 204.879C242.316 208.562 239.818 211.745 236.589 214.048C233.36 216.35 229.537 217.675 225.576 217.864C217.662 218.096 208.995 210.152 207.511 202.498C210.769 206.296 214.326 212.861 219.339 213.092Z" fill="black"/>
</g>
<path d="M277.449 121.84L266.344 165.567L237.896 180.731C237.896 180.731 219.358 181.001 205.592 195.249L206.036 198.642C207.218 203.102 209.74 207.092 213.262 210.073C216.784 213.053 221.136 214.881 225.73 215.309C226.087 215.309 226.444 215.358 226.81 215.367C226.81 215.367 277.767 187.951 282.394 181.001C287.022 174.05 288.766 133.292 288.766 133.292L277.449 121.84Z" fill="#FFBE9D"/>
<path d="M205.592 195.249L205.727 195.143L206.113 194.796L207.578 193.456C208.195 192.839 209.044 192.203 210.017 191.412C210.991 190.622 212.186 189.841 213.488 188.925C216.703 186.884 220.133 185.203 223.716 183.912C224.738 183.498 225.827 183.218 226.926 182.852C228.025 182.486 229.182 182.235 230.377 181.994C232.852 181.435 235.371 181.09 237.906 180.962H237.964H238.012L256.154 171.322L266.45 165.808L266.546 165.76V165.654C269.679 153.18 272.427 142.248 274.403 134.411C275.367 130.555 276.119 127.403 276.659 125.214C276.909 124.164 277.102 123.286 277.247 122.737C277.304 122.477 277.353 122.265 277.382 122.091C277.391 122.017 277.391 121.943 277.382 121.869C277.345 121.935 277.319 122.007 277.304 122.081L277.121 122.718C276.957 123.306 276.736 124.125 276.456 125.166C275.878 127.345 275.068 130.459 274.056 134.324L266.064 165.51L266.18 165.346L255.884 170.84L237.752 180.48H237.858C235.293 180.613 232.744 180.971 230.242 181.551C229.047 181.792 227.899 182.139 226.772 182.437C225.644 182.736 224.564 183.103 223.542 183.517C219.944 184.843 216.507 186.57 213.295 188.665C211.993 189.629 210.779 190.381 209.844 191.219C209.004 191.878 208.2 192.579 207.434 193.321L206.017 194.728L205.66 195.095C205.621 195.191 205.583 195.239 205.592 195.249Z" fill="#EB996E"/>
<g opacity="0.3">
<path d="M248.712 239.728C248.712 240.47 248.712 242.08 248.712 242.832C241 242.466 233.828 240.21 226.54 237.568C233.745 239.589 241.252 240.32 248.712 239.728Z" fill="black"/>
</g>
<path d="M288.767 133.292C288.756 133.388 288.756 133.485 288.767 133.581C288.767 133.803 288.767 134.083 288.699 134.439C288.641 135.23 288.574 136.367 288.477 137.755C288.285 140.647 288.005 144.783 287.571 149.921C287.137 155.059 286.607 161.161 285.576 167.89C285.104 171.426 284.356 174.92 283.339 178.34C283.065 179.211 282.693 180.049 282.231 180.837C281.676 181.587 281.028 182.264 280.303 182.851C278.83 184.101 277.296 185.275 275.704 186.37C269.255 190.833 262.816 194.67 256.974 198.16C251.132 201.649 245.782 204.667 241.299 207.212L230.695 213.198C229.461 213.892 228.488 214.432 227.803 214.827L227.051 215.251L226.81 215.415C226.905 215.389 226.996 215.35 227.08 215.3L227.851 214.914L230.743 213.362C233.288 212.012 236.952 210.027 241.453 207.52C245.955 205.014 251.306 202.006 257.186 198.555C263.066 195.104 269.496 191.267 275.974 186.775C277.584 185.67 279.135 184.483 280.621 183.218C281.369 182.601 282.037 181.891 282.607 181.107C283.091 180.283 283.479 179.406 283.763 178.494C284.312 176.748 284.756 174.971 285.094 173.173C285.434 171.418 285.724 169.696 285.961 168.006C286.925 161.258 287.446 155.127 287.889 149.998C288.333 144.87 288.506 140.686 288.632 137.813C288.689 136.396 288.728 135.288 288.757 134.497C288.757 134.14 288.757 133.851 288.757 133.63C288.775 133.518 288.778 133.405 288.767 133.292Z" fill="#EB996E"/>
<path d="M448.375 392.349C448.461 391.206 448.79 390.095 449.339 389.09C450.552 386.727 452.231 384.635 454.275 382.94V382.892L455.827 384.232L455.615 384.357C453.718 385.896 452.168 387.817 451.065 389.996C450.652 390.764 450.412 391.613 450.361 392.484C450.318 392.822 450.362 393.166 450.489 393.483C450.615 393.8 450.82 394.08 451.084 394.296C451.865 394.797 453.109 394.373 453.976 393.93C456.6 392.62 458.851 390.671 460.522 388.261L461.987 389.457C460.16 392.094 457.688 394.218 454.805 395.626C453.914 396.107 452.925 396.38 451.913 396.426C451.232 396.443 450.562 396.259 449.985 395.896C449.426 395.501 448.982 394.964 448.699 394.341C448.416 393.717 448.305 393.03 448.375 392.349Z" fill="#455A64"/>
<path d="M306.677 166.859C307.69 166.814 308.68 166.537 309.569 166.049C312.485 164.599 314.985 162.433 316.838 159.754L315.565 158.54C313.786 160.998 311.433 162.984 308.711 164.324C307.805 164.767 306.571 165.201 305.819 164.7C305.557 164.483 305.353 164.203 305.226 163.886C305.1 163.569 305.055 163.226 305.096 162.887C305.146 162.014 305.387 161.162 305.8 160.391C306.903 158.212 308.453 156.29 310.35 154.751L310.977 154.163L309.656 152.756L309.029 153.344C306.981 155.035 305.301 157.128 304.094 159.494C303.544 160.499 303.216 161.61 303.13 162.753C303.055 163.437 303.165 164.128 303.449 164.755C303.732 165.383 304.177 165.923 304.74 166.319C305.318 166.687 305.992 166.874 306.677 166.859Z" fill="#455A64"/>
<path d="M175.554 19.9259C175.554 19.9259 175.815 20.1862 176.335 20.6778L178.687 22.8661L187.884 31.3589L224.294 42.1172L224.198 42.0401C230.223 55.3336 237.472 71.336 245.618 89.3436L279.936 124.722L284.583 129.542C285.373 130.342 286.135 131.181 286.954 131.952L289.451 134.256L299.592 143.665L320.646 163.167L320.588 163.07L329.033 187.623V187.681L344.457 204.281H344.505L345.469 204.754L403.116 232.324L403.02 232.228C411.339 246.196 419.331 259.605 426.927 272.34V272.118L402.663 321.764L402.605 321.87L402.692 321.966L448.395 378.119L461.862 389.456L465.342 392.348C466.123 393.004 466.528 393.312 466.528 393.312L465.371 392.3L461.939 389.36L448.54 377.984L402.952 321.754V321.957L427.322 272.349L427.38 272.243L427.322 272.137L403.434 232.006V231.948H403.367L345.883 204.445L344.919 203.973L344.997 204.031L329.573 187.421V187.508C326.681 179.073 323.789 170.753 321.118 162.955V162.897H321.07L300.016 143.405L289.865 134.006L287.369 131.702C286.549 130.931 285.788 130.092 284.997 129.301L280.351 124.481C267.992 111.824 256.424 99.9475 245.946 89.1218V89.1797C237.771 71.2011 230.522 55.189 224.439 41.9437V41.8762H224.371L187.951 31.2722L178.697 22.8372L176.316 20.6875L175.554 19.9259Z" fill="#263238"/>
</svg>
