<svg width="50" height="40" viewBox="0 0 50 40" fill="none" xmlns="http://www.w3.org/2000/svg">
<path d="M0.404357 21.0412C0.8138 20.2008 1.56805 20.0068 2.40849 20.0068C3.24892 20.0068 4.11091 20.0068 4.8867 20.0068C5.68403 10.2448 10.3819 3.47822 19.9284 0.719861C27.0613 -1.32736 34.1727 1.17239 38.849 5.93487C37.3836 7.3356 35.9398 8.7579 34.4744 10.1586C29.4749 5.87024 24.0012 4.8574 18.1182 8.04675C13.5066 10.5465 11.1576 15.5676 11.2654 19.9422C11.4162 20.093 11.5886 20.0068 11.761 20.0284C12.6446 20.0715 13.5281 19.9637 14.3901 20.093C14.9719 20.1792 15.4891 20.3947 15.6831 20.9981C15.8986 21.623 15.7046 22.2049 15.2736 22.6359C13.2911 24.6184 11.3085 26.601 9.28282 28.5405C8.42083 29.3594 7.7097 29.3594 6.84771 28.5405C4.84359 26.5795 2.86103 24.5969 0.856908 22.6359C0.619861 22.3988 0.598309 22.054 0.382812 21.817C0.404362 21.5584 0.404357 21.2998 0.404357 21.0412Z" fill="#1DA1F2"/>
<path d="M11.1787 34.0571C12.6441 32.6564 14.1095 31.2341 15.5533 29.8549C20.5744 34.1002 26.0264 35.1777 31.8664 31.9668C36.4349 29.467 38.5683 25.3295 38.8269 20.2222C38.6114 20.0283 38.4175 20.0929 38.2666 20.0929C37.4478 20.0714 36.6289 20.1145 35.81 20.0714C35.185 20.0498 34.6032 19.8343 34.3446 19.1663C34.086 18.4982 34.3446 17.8949 34.8187 17.4208C36.672 15.5675 38.5252 13.7358 40.3785 11.9041C40.5509 11.7317 40.7449 11.5592 40.9604 11.4084C41.6499 10.8912 42.2102 10.8912 42.8998 11.4084C43.1369 11.5808 43.3739 11.7963 43.5894 12.0118C45.3996 13.8004 47.2098 15.589 49.0199 17.3992C49.1277 17.507 49.257 17.6363 49.3216 17.7656C50.0112 18.9292 49.4509 20.0283 48.0933 20.1145C47.2529 20.1576 46.434 20.136 45.5935 20.136C45.4211 20.136 45.2487 20.136 45.141 20.136C44.3437 29.7041 39.7536 36.3629 30.4872 39.2075C23.1388 41.4055 15.8334 38.8196 11.1787 34.0571Z" fill="#1DA1F2"/>
</svg>
