<svg width="40" height="40" viewBox="0 0 40 40" fill="none" xmlns="http://www.w3.org/2000/svg">
<path d="M33.9144 22.1396C33.9144 27.3236 33.9144 32.5075 33.9144 37.6914C33.9144 39.1515 33.0428 40.0004 31.5941 40.0004C23.0485 40.0004 14.5029 40.0004 5.95738 40.0004C4.03322 40.0004 2.83343 38.812 2.83343 36.8878C2.83343 35.7333 2.83343 34.5675 2.83343 33.413C3.73892 33.413 4.63309 33.413 5.53858 33.413C5.53858 34.3864 5.53858 35.3598 5.5499 36.3332C5.5499 37.0123 5.82155 37.2953 6.48935 37.2953C7.53066 37.2953 8.57197 37.2953 9.6246 37.2953C16.4724 37.2953 23.3201 37.2953 30.1566 37.2953C30.9376 37.2953 31.2205 37.001 31.2205 36.2313C31.2205 32.4283 31.2205 28.6365 31.2205 24.8335C32.0921 23.9167 33.0089 23.0225 33.9144 22.1396Z" fill="#1DA1F2"/>
<path d="M2.84511 6.59876C2.84511 5.38767 2.84511 4.16525 2.84511 2.95416C2.85643 1.26768 4.10148 0.0113228 5.78795 0.0113228C14.3561 0.0113228 22.9243 0.0226372 31.4925 0C32.8281 0 33.926 0.780982 33.926 2.44482C33.9147 6.19128 33.926 9.92643 33.926 13.6729C33.926 13.9785 33.9374 14.2954 33.9374 14.601C33.0885 15.4952 32.2169 16.378 31.3227 17.2156C31.1756 17.0798 31.2435 16.8987 31.2435 16.7289C31.2435 12.4278 31.2435 8.11546 31.2435 3.81438C31.2435 2.9768 30.9945 2.71647 30.1682 2.71647C23.3205 2.71647 16.484 2.71647 9.63628 2.71647C8.59497 2.71647 7.55365 2.71647 6.50102 2.71647C5.83322 2.71647 5.56158 2.99943 5.56158 3.67855C5.56158 4.65195 5.56157 5.62536 5.55025 6.59876C4.64476 6.59876 3.73928 6.59876 2.84511 6.59876Z" fill="#1DA1F2"/>
<path d="M31.3117 17.2161C32.2058 16.3672 33.0774 15.4956 33.9263 14.6015C34.4809 14.1374 34.9223 13.5488 35.4996 13.1074C36.7107 14.3638 37.9444 15.5975 39.2007 16.8086C37.5709 18.4498 35.941 20.0797 34.3111 21.7209C34.1753 21.8567 34.0395 22.0039 33.9036 22.151C32.9868 23.0339 32.0813 23.9167 31.2098 24.8448C30.9721 25.0712 30.7344 25.2863 30.508 25.5126C29.014 26.984 27.5313 28.4668 26.0485 29.9382C24.8261 28.7045 23.6037 27.4821 22.3813 26.2483C22.4266 26.0672 22.5737 25.9767 22.6869 25.8522C25.4486 23.0791 28.2217 20.3174 30.9834 17.5556C31.1079 17.4424 31.2098 17.3293 31.3117 17.2161Z" fill="#636C77"/>
<path d="M2.84509 6.59872C3.75058 6.59872 4.64474 6.59872 5.55023 6.59872C5.88979 6.61004 6.22935 6.61004 6.55759 6.62136C7.19143 6.63267 7.55363 6.96091 7.57627 7.59475C7.5989 8.10409 7.5989 8.60211 7.57627 9.11145C7.55363 9.67738 7.19143 10.0056 6.6255 10.0283C6.2633 10.0396 5.90111 9.98299 5.53891 10.0622C4.64474 10.0056 3.75058 10.0283 2.84509 10.0509C2.82245 10.0622 2.79981 10.0735 2.76585 10.0735C2.33575 10.0849 1.90564 10.1414 1.47553 10.0169C1.04542 9.88112 0.819059 9.58684 0.807741 9.14541C0.796422 8.60212 0.796422 8.04751 0.807741 7.50421C0.819059 6.98356 1.18125 6.64399 1.69058 6.62136C2.07542 6.59872 2.46026 6.59872 2.84509 6.59872Z" fill="#636C77"/>
<path d="M2.83376 25.625C2.44893 25.6137 2.07542 25.625 1.69058 25.6024C1.16993 25.5798 0.819059 25.2402 0.807741 24.7195C0.796422 24.1762 0.796422 23.6216 0.807741 23.0783C0.819059 22.5577 1.16993 22.2181 1.69058 22.1955C2.0641 22.1842 2.44893 22.1842 2.83376 22.1729C3.73925 22.2181 4.63343 22.2181 5.53891 22.1729C5.90111 22.1842 6.26331 22.1955 6.63683 22.2068C7.19144 22.2181 7.55363 22.5577 7.57627 23.1236C7.5989 23.633 7.5989 24.131 7.57627 24.6403C7.54231 25.2742 7.18011 25.6024 6.55759 25.6137C6.21803 25.6137 5.88979 25.625 5.55023 25.6363C4.64474 25.625 3.73925 25.625 2.83376 25.625Z" fill="#636C77"/>
<path d="M5.53891 33.4239C4.63343 33.4239 3.73925 33.4239 2.83376 33.4239C2.47157 33.4239 2.09806 33.4239 1.73586 33.4125C1.16993 33.3899 0.819059 33.0503 0.807741 32.4731C0.796422 31.9524 0.796422 31.4318 0.807741 30.9111C0.819059 30.3339 1.16993 30.017 1.74718 30.017C2.08674 30.017 2.42629 30.0056 2.76585 30.0056C2.79981 30.0056 2.82245 30.0056 2.84509 29.983C3.73926 30.0056 4.63343 30.0283 5.53891 29.9717C5.90111 30.0509 6.2633 29.9943 6.6255 30.0056C7.18011 30.0283 7.55363 30.3565 7.57627 30.9224C7.5989 31.4318 7.5989 31.9298 7.57627 32.4391C7.55363 33.073 7.19143 33.4012 6.55759 33.4125C6.21803 33.4125 5.87847 33.4125 5.53891 33.4239Z" fill="#636C77"/>
<path d="M2.83376 17.8381C2.44893 17.8268 2.07542 17.8268 1.69058 17.8155C1.16993 17.7928 0.819059 17.4533 0.807741 16.9326C0.796422 16.3893 0.796422 15.8347 0.807741 15.2914C0.819059 14.7708 1.18125 14.4312 1.69058 14.4086C2.07542 14.3973 2.44893 14.3972 2.83376 14.3859C3.73925 14.3859 4.63343 14.3859 5.53891 14.3859C5.86715 14.3972 6.18407 14.4086 6.51231 14.4086C7.20275 14.4199 7.55363 14.7481 7.57627 15.4386C7.58758 15.9026 7.58758 16.3667 7.57627 16.8421C7.56495 17.442 7.19144 17.8042 6.59155 17.8155C6.24067 17.8268 5.88979 17.8381 5.53891 17.8381C4.63343 17.8041 3.73925 17.8041 2.83376 17.8381Z" fill="#636C77"/>
<path d="M5.53858 14.3862C4.63309 14.3862 3.73892 14.3862 2.83343 14.3862C2.83343 12.96 2.83344 11.5226 2.84476 10.0964C2.84476 10.0738 2.84476 10.0625 2.84476 10.0398C3.73893 10.0172 4.63309 9.99455 5.53858 10.0511C5.53858 11.4999 5.53858 12.9487 5.53858 14.3862Z" fill="#1DA1F2"/>
<path d="M2.83343 17.8377C3.73892 17.7924 4.63309 17.7924 5.53858 17.8377C5.53858 19.2864 5.53858 20.7239 5.53858 22.1727C4.63309 22.2067 3.73892 22.218 2.83343 22.1727C2.83343 20.7239 2.83343 19.2864 2.83343 17.8377Z" fill="#1DA1F2"/>
<path d="M5.53858 29.96C4.64441 30.0166 3.75025 29.994 2.84476 29.9714C2.84476 29.9487 2.84476 29.9374 2.84476 29.9148C2.84476 28.4886 2.84475 27.0511 2.83343 25.625C3.73892 25.625 4.63309 25.625 5.53858 25.625C5.53858 27.0738 5.53858 28.5113 5.53858 29.96Z" fill="#1DA1F2"/>
<path d="M2.84471 10.0508C2.84471 10.0734 2.84471 10.0847 2.84471 10.1074C2.82208 10.0961 2.79943 10.096 2.77679 10.0847C2.79943 10.0621 2.82208 10.0508 2.84471 10.0508Z" fill="#38A7D1"/>
<path d="M2.8451 29.9151C2.8451 29.9377 2.8451 29.9491 2.8451 29.9717C2.82246 29.9943 2.79982 29.9943 2.76586 29.9943C2.7885 29.9717 2.82246 29.9377 2.8451 29.9151Z" fill="#38A7D1"/>
<path d="M31.3114 17.2156C31.2096 17.3288 31.1077 17.4533 30.9945 17.5551C28.2328 20.3169 25.4597 23.09 22.6979 25.8517C22.5848 25.9649 22.4263 26.0668 22.3923 26.2478C22.2339 26.3158 22.2226 26.4742 22.1773 26.5987C21.6906 27.8325 21.2039 29.0662 20.7172 30.2999C20.5814 30.6508 20.5701 30.9903 20.8417 31.2846C21.1247 31.5902 21.4755 31.6015 21.849 31.477C22.4489 31.262 23.0488 31.0809 23.6374 30.8432C24.441 30.5376 25.2673 30.3225 26.0483 29.949C27.531 28.4776 29.0251 26.9949 30.5078 25.5235C30.7342 25.2971 30.9718 25.082 31.2095 24.8557C31.2095 28.6587 31.2095 32.4505 31.2095 36.2535C31.2095 37.0232 30.9153 37.3175 30.1456 37.3175C23.2978 37.3175 16.4501 37.3175 9.61363 37.3175C9.61363 25.7838 9.61363 14.2614 9.61363 2.72775C16.4614 2.72775 23.2978 2.72775 30.1456 2.72775C30.9605 2.72775 31.2209 2.98809 31.2209 3.82567C31.2209 8.12674 31.2209 12.4391 31.2209 16.7402C31.2322 16.8874 31.1756 17.0684 31.3114 17.2156ZM20.4229 13.1975C22.1207 13.1975 23.8072 13.1975 25.505 13.1975C26.2067 13.1975 26.5463 12.8579 26.5463 12.1562C26.5576 11.0017 26.5576 9.83586 26.5463 8.68136C26.535 8.01356 26.218 7.70794 25.5502 7.70794C22.1546 7.70794 18.7478 7.70794 15.3522 7.70794C14.6617 7.70794 14.3674 7.99092 14.3674 8.68136C14.3674 9.82454 14.3674 10.9677 14.3674 12.1109C14.3674 12.9145 14.6617 13.1975 15.4654 13.1975C17.1179 13.1975 18.7704 13.1975 20.4229 13.1975Z" fill="#1DA1F2"/>
<path d="M9.6247 2.71599C9.6247 14.2497 9.6247 25.772 9.6247 37.3057C8.58339 37.3057 7.54208 37.3057 6.48945 37.3057C5.82165 37.3057 5.55 37.0227 5.55 36.3436C5.55 35.3702 5.55 34.3968 5.53868 33.4234C5.87824 33.4121 6.20648 33.4121 6.54604 33.4008C7.17988 33.3894 7.54208 33.0612 7.56472 32.4274C7.58735 31.918 7.58735 31.42 7.56472 30.9107C7.54208 30.3561 7.17988 30.0165 6.61395 29.9939C6.25175 29.9825 5.88956 30.0391 5.52736 29.9599C5.52736 28.5111 5.52736 27.0737 5.52736 25.6249C5.86692 25.6136 6.19517 25.6022 6.53472 25.6022C7.16857 25.5909 7.53076 25.274 7.5534 24.6288C7.57604 24.1195 7.57604 23.6215 7.5534 23.1122C7.53076 22.5462 7.16856 22.2066 6.61395 22.1953C6.25175 22.184 5.88956 22.1727 5.51605 22.1614C5.51605 20.7126 5.51605 19.2751 5.51605 17.8263C5.86693 17.815 6.21779 17.8037 6.56867 17.8037C7.16856 17.7924 7.54208 17.4302 7.5534 16.8303C7.56472 16.3663 7.56472 15.9022 7.5534 15.4268C7.53076 14.7364 7.17988 14.4081 6.48945 14.3968C6.16121 14.3968 5.84429 14.3855 5.51605 14.3742C5.51605 12.9254 5.51605 11.4879 5.51605 10.0391C5.87824 9.95992 6.24044 10.0165 6.60263 10.0052C7.15725 9.98255 7.53076 9.65431 7.5534 9.08838C7.57604 8.57904 7.57604 8.08102 7.5534 7.57168C7.53076 6.93784 7.15725 6.6096 6.53472 6.59828C6.19517 6.59828 5.8556 6.58696 5.52736 6.57564C5.52736 5.60224 5.52736 4.62884 5.53868 3.65544C5.53868 2.97632 5.81033 2.69336 6.47813 2.69336C7.54208 2.716 8.58339 2.71599 9.6247 2.71599Z" fill="#1DA1F2"/>
<path d="M26.0714 29.9375C25.3017 30.311 24.4642 30.5261 23.6605 30.8317C23.072 31.0581 22.4608 31.2505 21.8722 31.4655C21.4987 31.6013 21.1478 31.59 20.8648 31.2731C20.5932 30.9788 20.5932 30.6393 20.7403 30.2884C21.227 29.0547 21.7137 27.8209 22.2004 26.5872C22.2457 26.4627 22.257 26.3042 22.4155 26.2363C23.6266 27.4814 24.849 28.7038 26.0714 29.9375Z" fill="#F5F5F5"/>
<path d="M20.4229 13.1975C18.7704 13.1975 17.1179 13.1975 15.4654 13.1975C14.6504 13.1975 14.3674 12.9032 14.3674 12.1109C14.3674 10.9677 14.3674 9.82454 14.3674 8.68136C14.3674 7.99092 14.6504 7.70795 15.3522 7.70795C18.7478 7.70795 22.1546 7.70795 25.5502 7.70795C26.218 7.70795 26.535 8.02488 26.5463 8.68136C26.5576 9.83586 26.5576 10.9904 26.5463 12.1562C26.5463 12.8579 26.2067 13.1975 25.505 13.1975C23.8072 13.2088 22.1094 13.1975 20.4229 13.1975Z" fill="#F5F5F5"/>
</svg>
