<svg width="34" height="40" viewBox="0 0 34 40" fill="none" xmlns="http://www.w3.org/2000/svg">
<path d="M7.34626 0C7.5341 0.219149 7.52366 0.500912 7.57584 0.761804C7.57584 3.63162 7.57584 6.50144 7.57584 9.37125C7.46104 10.0809 7.46105 10.0809 6.75143 10.0809C6.01049 10.0809 5.26955 10.0809 4.49731 10.0809C4.66428 9.63214 4.60166 9.19384 4.60166 8.76598C4.60166 6.14662 4.60166 3.51682 4.60166 0.897467C4.60166 0.584396 4.62254 0.281764 4.44513 0C5.41565 0 6.37574 0 7.34626 0Z" fill="#DEDAE8"/>
<path d="M27.8103 24.294C26.4328 24.294 25.0553 24.3044 23.6778 24.3044C18.3138 24.3044 12.9394 24.3044 7.5755 24.3044C7.47114 24.2001 7.50245 24.0644 7.50245 23.9288C7.50245 21.3094 7.50245 18.6796 7.50245 16.0603C7.50245 15.935 7.47114 15.7994 7.5755 15.6846C14.0665 15.6846 20.5679 15.6846 27.0589 15.6846C27.205 15.6846 27.3407 15.6846 27.4868 15.6846C27.4972 15.7472 27.4868 15.8202 27.5077 15.8724C27.946 16.9995 28.1756 18.1891 28.2486 19.3892C28.3634 21.0485 28.2799 22.6869 27.8103 24.294ZM14.6092 22.0295C15.8614 22.0295 17.1033 22.0295 18.3556 22.0295C18.7521 22.0295 18.9921 21.7999 19.0026 21.4451C19.013 21.0798 18.7939 20.8398 18.3973 20.8398C15.8823 20.8294 13.3777 20.8398 10.8627 20.8398C10.6645 20.8398 10.5079 20.9024 10.3827 21.0589C10.2366 21.2468 10.1949 21.4555 10.2992 21.6746C10.4244 21.9251 10.6227 22.0295 10.894 22.0295C12.1359 22.0295 13.3673 22.0295 14.6092 22.0295ZM12.7307 17.8761C12.115 17.8761 11.5098 17.8761 10.894 17.8761C10.5079 17.8761 10.247 18.1161 10.2366 18.45C10.2262 18.7944 10.4975 19.0657 10.894 19.0657C12.0942 19.0762 13.2838 19.0762 14.4839 19.0657C14.9014 19.0657 15.1518 18.8257 15.1518 18.4709C15.1518 18.1161 14.9014 17.8865 14.4839 17.8865C13.8995 17.8656 13.3151 17.8761 12.7307 17.8761Z" fill="#1DA1F2"/>
<path d="M7.57617 9.37086C7.57617 6.50104 7.57617 3.63122 7.57617 0.76141C13.3575 0.76141 19.1285 0.761412 24.9099 0.750977C25.7656 0.750977 26.6317 0.750977 27.4875 0.750977C27.5188 0.886641 27.5396 1.03274 27.5918 1.1684C27.9988 2.27459 28.1971 3.42251 28.2701 4.58088C28.3745 6.18797 28.2493 7.79506 27.8214 9.34998C27.7797 9.34998 27.7484 9.36041 27.7066 9.36041C20.986 9.37085 14.2863 9.37086 7.57617 9.37086ZM14.6411 6.00013C13.4202 6.00013 12.1992 6.00013 10.9678 6.00013C10.5086 6.00013 10.2477 6.21928 10.2373 6.57409C10.2268 6.94977 10.5086 7.1898 10.9782 7.1898C13.4097 7.1898 15.8412 7.1898 18.2728 7.1898C18.7319 7.1898 18.9824 6.98108 18.9928 6.6054C19.0033 6.20884 18.7632 6.00013 18.2623 6.00013C17.0622 5.98969 15.8517 6.00013 14.6411 6.00013ZM12.6897 3.03639C12.0948 3.03639 11.4896 3.03639 10.8947 3.03639C10.5086 3.03639 10.2477 3.27641 10.2373 3.61035C10.2268 3.95473 10.4877 4.22606 10.8947 4.22606C12.0948 4.2365 13.2845 4.2365 14.4846 4.22606C14.902 4.22606 15.1525 3.98604 15.1525 3.63122C15.1525 3.26597 14.902 3.04683 14.4846 3.04683C13.8898 3.02596 13.2949 3.03639 12.6897 3.03639Z" fill="#1DA1F2"/>
<path d="M7.57617 30.6289C14.1507 30.6289 20.7251 30.6289 27.2996 30.6289C27.3622 30.6289 27.4249 30.6393 27.4979 30.6393C27.5292 30.775 27.5501 30.9211 27.5918 31.0568C27.9571 32.1212 28.1867 33.2274 28.2597 34.3544C28.3641 36.0033 28.2701 37.6417 27.8005 39.2383C21.0591 39.2383 14.3176 39.2383 7.57617 39.2383C7.57617 36.3581 7.57617 33.4883 7.57617 30.6289ZM14.6411 37.0573C15.8517 37.0573 17.0622 37.0573 18.2728 37.0573C18.6171 37.0573 18.8989 36.9738 18.9824 36.5981C19.0763 36.1703 18.7841 35.8572 18.2728 35.8572C15.8517 35.8572 13.4306 35.8572 11.0095 35.8572C10.5295 35.8572 10.2477 36.0659 10.2373 36.4416C10.2268 36.8277 10.5086 37.0573 11.0095 37.0573C12.2201 37.0573 13.4306 37.0573 14.6411 37.0573ZM12.7105 32.8934C12.1157 32.8934 11.5209 32.883 10.9156 32.8934C10.5086 32.9039 10.2477 33.1439 10.2373 33.4883C10.2373 33.8327 10.4877 34.0936 10.9052 34.104C12.0948 34.1144 13.2949 34.1144 14.4846 34.104C14.9125 34.104 15.1525 33.864 15.1525 33.4987C15.1525 33.123 14.902 32.8934 14.4533 32.883C13.8793 32.883 13.2949 32.8934 12.7105 32.8934Z" fill="#1DA1F2"/>
<path d="M27.8107 9.36077C28.249 7.79542 28.3637 6.19876 28.2594 4.59167C28.1863 3.43331 27.9881 2.28538 27.5811 1.1792C27.5289 1.04353 27.508 0.907867 27.4767 0.761768C28.6142 0.678282 29.7621 0.740898 30.9101 0.730462C31.0875 0.730462 31.1918 0.834819 31.2649 0.991354C31.9327 2.26451 32.6006 3.5481 33.2685 4.82125C33.3624 4.99866 33.352 5.15519 33.2581 5.3326C32.5902 6.59532 31.9327 7.85804 31.2649 9.13119C31.1814 9.29816 31.0875 9.39208 30.8787 9.39208C29.8665 9.36078 28.8438 9.36077 27.8107 9.36077Z" fill="#1DA1F2"/>
<path d="M27.8007 39.2276C28.2703 37.6309 28.3538 35.9821 28.2599 34.3437C28.1868 33.2271 27.9677 32.1209 27.592 31.046C27.5502 30.9104 27.5294 30.7747 27.498 30.6286C28.6251 30.6286 29.7626 30.6286 30.8896 30.6182C31.0879 30.6182 31.1923 30.7017 31.2758 30.8686C31.9332 32.1418 32.5907 33.4045 33.2586 34.6672C33.3629 34.8655 33.342 35.0325 33.2481 35.2203C32.5907 36.4726 31.9332 37.7249 31.2758 38.9876C31.1819 39.165 31.0775 39.2902 30.8583 39.2798C29.867 39.2798 28.886 39.2798 27.8946 39.2694C27.8737 39.2694 27.8424 39.238 27.8007 39.2276Z" fill="#1DA1F2"/>
<path d="M27.8111 24.2943C28.2807 22.6977 28.3642 21.0488 28.2599 19.4104C28.1868 18.2103 27.9572 17.0311 27.5189 15.8936C27.4981 15.831 27.498 15.7684 27.498 15.7057C28.6251 15.7057 29.7626 15.6953 30.8896 15.6953C31.0879 15.6953 31.1923 15.7788 31.2862 15.9458C31.9437 17.2189 32.6115 18.4816 33.269 19.7444C33.3629 19.9218 33.3629 20.0783 33.269 20.2557C32.6011 21.5184 31.9437 22.7916 31.2862 24.0543C31.2027 24.2213 31.0879 24.3152 30.8896 24.3048C29.8669 24.2943 28.8443 24.2943 27.8111 24.2943Z" fill="#1DA1F2"/>
<path d="M7.57588 30.6288C7.57588 33.4986 7.57588 36.3684 7.57588 39.2382C7.3776 40 7.37761 40 6.56362 40C5.86443 40 5.16525 40 4.40344 40C4.63303 39.7391 4.61216 39.4574 4.61216 39.186C4.61216 36.3788 4.61216 33.5717 4.61216 30.7645C4.61216 30.4931 4.64346 30.2218 4.47649 29.9296C5.4157 29.9296 6.31317 29.9192 7.2002 29.9296C7.39848 29.9296 7.4924 30.0653 7.51327 30.2635C7.51327 30.3783 7.46109 30.5244 7.57588 30.6288Z" fill="#DEDAE8"/>
<path d="M7.57618 15.6845C7.47182 15.7889 7.50314 15.9245 7.50314 16.0602C7.50314 18.6796 7.50314 21.3094 7.50314 23.9287C7.50314 24.0539 7.47182 24.1896 7.57618 24.3044C7.55531 24.9723 7.44052 25.0766 6.7935 25.0766C6.01083 25.0766 5.23859 25.0766 4.3933 25.0766C4.65419 24.7218 4.60201 24.3461 4.60201 23.9809C4.60201 21.2259 4.60201 18.4708 4.60201 15.7158C4.60201 15.4549 4.60202 15.194 4.35156 14.9331C5.34295 14.9331 6.24042 14.9018 7.13789 14.9436C7.57619 14.954 7.56574 15.361 7.57618 15.6845Z" fill="#DEDAE8"/>
<path d="M3.81853 34.9388C4.73687 36.2119 3.91245 37.5268 2.85845 37.7773C1.81488 38.0173 0.71913 37.1825 0.729566 36.118C0.729566 35.7736 0.969592 35.5023 1.28266 35.471C1.5853 35.4397 1.87749 35.6484 1.92967 35.9719C1.98185 36.3476 2.10708 36.6085 2.52451 36.5876C2.80628 36.5772 2.98368 36.3893 2.99412 36.1076C3.00455 35.6902 2.73323 35.5754 2.36798 35.5232C2.06534 35.4814 1.88793 35.2623 1.88793 34.9492C1.88793 34.6361 2.0549 34.4379 2.35753 34.3648C2.46189 34.344 2.56625 34.3335 2.66017 34.3022C2.90019 34.2187 3.00455 34.0413 3.00455 33.7909C2.99412 33.5404 2.86889 33.3734 2.62887 33.3004C2.38885 33.2378 2.19057 33.3108 2.05491 33.5195C2.00273 33.603 1.98185 33.7074 1.9401 33.8013C1.794 34.1144 1.51224 34.25 1.20961 34.1561C0.865228 34.0518 0.750435 33.7909 0.792178 33.4569C0.917406 32.476 2.07578 31.8185 3.05673 32.1629C4.18378 32.5594 4.52815 33.77 3.81853 34.9388Z" fill="#2C4E67"/>
<path d="M2.59806 21.6436C2.99462 21.6436 3.31813 21.6332 3.64163 21.6436C4.02775 21.6541 4.28865 21.8837 4.29909 22.2176C4.31996 22.5724 4.06949 22.8438 3.6625 22.8542C2.96331 22.8751 2.25369 22.8855 1.55449 22.8542C0.844868 22.8229 0.594416 22.3115 1.01184 21.7271C1.47101 21.0801 1.95105 20.4435 2.41022 19.807C2.57719 19.5774 2.73373 19.3374 2.83809 19.066C2.96332 18.753 2.85896 18.5234 2.5772 18.3877C2.30587 18.252 2.01366 18.3877 1.878 18.6903C1.85713 18.7425 1.84669 18.7843 1.82582 18.8364C1.67972 19.1704 1.39796 19.3165 1.07446 19.2226C0.761385 19.1286 0.604844 18.826 0.677894 18.4816C0.876172 17.5424 1.8467 16.958 2.79634 17.1876C3.74599 17.4172 4.30951 18.4086 4.02775 19.3269C3.91295 19.713 3.70425 20.0679 3.47466 20.3914C3.20334 20.7879 2.92157 21.174 2.59806 21.6436Z" fill="#2C4E67"/>
<path d="M2.34808 3.43286C2.19155 3.43286 2.06633 3.4433 1.95153 3.43286C1.61759 3.39112 1.39844 3.15109 1.39844 2.82759C1.39844 2.50408 1.61759 2.26406 1.95153 2.24319C2.28548 2.22232 2.62985 2.22232 2.96379 2.24319C3.3186 2.25363 3.52732 2.46234 3.53775 2.80672C3.54819 4.29903 3.54819 5.80176 3.53775 7.29407C3.53775 7.64888 3.24555 7.8889 2.93248 7.87846C2.59854 7.86803 2.34808 7.60714 2.34808 7.23145C2.33765 6.12527 2.34808 5.01909 2.34808 3.9129C2.34808 3.77724 2.34808 3.63114 2.34808 3.43286Z" fill="#2C4E67"/>
<path d="M14.6094 22.0295C13.378 22.0295 12.1362 22.0295 10.9048 22.0295C10.6334 22.0295 10.4247 21.9252 10.3099 21.6747C10.2056 21.4451 10.2473 21.2468 10.3934 21.059C10.5082 20.9025 10.6752 20.8398 10.8735 20.8398C13.3885 20.8398 15.893 20.8398 18.408 20.8398C18.8046 20.8398 19.0237 21.0799 19.0133 21.4451C19.0029 21.7895 18.7628 22.0295 18.3663 22.0295C17.1036 22.04 15.8513 22.0295 14.6094 22.0295Z" fill="white"/>
<path d="M12.7308 17.8767C13.3152 17.8767 13.8996 17.8767 14.484 17.8767C14.9118 17.8767 15.1623 18.1062 15.1518 18.4611C15.1518 18.8263 14.9014 19.0559 14.484 19.0559C13.2839 19.0559 12.0942 19.0663 10.8941 19.0559C10.4871 19.0559 10.2262 18.795 10.2366 18.4402C10.2471 18.1062 10.508 17.8766 10.8941 17.8662C11.5098 17.8662 12.1151 17.8767 12.7308 17.8767Z" fill="white"/>
<path d="M14.6408 6.00098C15.8513 6.00098 17.0618 6.00098 18.2724 6.00098C18.7733 6.00098 19.0029 6.20969 19.0029 6.60625C18.9924 6.98193 18.742 7.19065 18.2828 7.19065C15.8513 7.19065 13.4198 7.19065 10.9883 7.19065C10.5187 7.19065 10.2369 6.95062 10.2474 6.57494C10.2578 6.22013 10.5291 6.00098 10.9778 6.00098C12.1988 6.00098 13.4198 6.00098 14.6408 6.00098Z" fill="white"/>
<path d="M12.689 3.0368C13.2839 3.0368 13.8891 3.0368 14.484 3.0368C14.9118 3.0368 15.1518 3.26639 15.1518 3.6212C15.1518 3.98645 14.9014 4.21604 14.484 4.21604C13.2839 4.22647 12.0942 4.22647 10.8941 4.21604C10.4871 4.21604 10.2262 3.95514 10.2366 3.60033C10.2471 3.26639 10.508 3.0368 10.8941 3.02637C11.4889 3.02637 12.0942 3.0368 12.689 3.0368Z" fill="white"/>
<path d="M14.6405 37.0575C13.4299 37.0575 12.2194 37.0575 11.0089 37.0575C10.5079 37.0575 10.2262 36.8175 10.2366 36.4418C10.247 36.0766 10.5288 35.8574 11.0089 35.8574C13.4299 35.8574 15.851 35.8574 18.2721 35.8574C18.7834 35.8574 19.0861 36.1601 18.9817 36.5984C18.8982 36.974 18.6165 37.0575 18.2721 37.0575C17.0615 37.0575 15.851 37.0575 14.6405 37.0575Z" fill="white"/>
<path d="M12.7099 32.8932C13.2943 32.8932 13.8787 32.8932 14.4631 32.8932C14.9118 32.8932 15.1623 33.1333 15.1623 33.5089C15.1623 33.8638 14.9118 34.1038 14.4944 34.1142C13.3047 34.1246 12.1046 34.1246 10.9149 34.1142C10.508 34.1142 10.2471 33.8429 10.2471 33.4985C10.2471 33.1541 10.5184 32.9037 10.9254 32.9037C11.5202 32.8828 12.1151 32.8932 12.7099 32.8932Z" fill="white"/>
</svg>
