<svg width="36" height="37" viewBox="0 0 36 37" fill="none" xmlns="http://www.w3.org/2000/svg">
<path d="M0.404449 0C8.88645 0 17.3685 0 25.84 0C26.6642 0 27.1859 0.521649 27.1963 1.36672C27.1963 1.72144 27.1963 2.06573 27.1963 2.42045C27.1963 4.14189 27.1963 5.87376 27.1963 7.5952C27.1963 9.31664 27.1859 11.0485 27.1859 12.77C26.7894 12.2796 26.3721 11.7997 25.9861 11.2989C25.8087 11.0694 25.6105 10.9337 25.3288 11.0276C25.0471 11.1215 24.9428 11.3511 24.9428 11.6328C24.9428 11.9666 24.9324 12.3005 24.9324 12.6448C24.9011 12.6239 24.8593 12.603 24.8385 12.5822C24.6402 12.3318 24.3898 12.1544 24.0664 12.29C23.7221 12.4361 23.7639 12.77 23.7639 13.0725C23.7639 14.1262 23.8056 15.18 23.7534 16.2337C23.7117 17.1935 23.8891 18.0908 24.2334 18.9671C24.2959 19.1132 24.3481 19.2593 24.4003 19.4053C25.1723 21.6484 25.9444 23.8915 26.7373 26.1242C26.8625 26.458 26.8729 26.8649 27.1859 27.1257C27.1963 27.3552 27.2067 27.5848 27.2172 27.8143C27.2172 30.4643 27.2067 33.1247 27.2067 35.7746C27.2067 35.879 27.1963 35.9833 27.2067 36.0876C27.2172 36.2754 27.1233 36.338 26.9459 36.338C26.4243 36.3172 25.9131 36.4006 25.3914 36.4006C17.5562 36.4111 9.72109 36.4006 1.88593 36.4111C0.988697 36.4111 0.467051 35.7434 0.467051 35.013C0.487917 23.7037 0.477482 12.3944 0.477482 1.08503C0.477482 0.719874 0.498346 0.365154 0.404449 0ZM13.2266 17.663C10.2219 17.663 7.21718 17.663 4.20205 17.663C3.75343 17.663 3.47175 17.8925 3.46131 18.2473C3.45088 18.602 3.75344 18.8732 4.19162 18.8941C4.25422 18.8941 4.31681 18.8941 4.38984 18.8941C10.274 18.8941 16.1582 18.8941 22.0424 18.8941C22.1885 18.8941 22.3345 18.8941 22.4702 18.8628C22.7832 18.7793 22.9814 18.5603 22.9501 18.2368C22.9188 17.903 22.7101 17.6943 22.3658 17.663C22.2511 17.6526 22.1363 17.663 22.0111 17.663C19.0795 17.663 16.1478 17.663 13.2266 17.663ZM13.2161 28.5237C10.2114 28.5237 7.20675 28.5237 4.19162 28.5237C3.743 28.5237 3.47175 28.7533 3.46131 29.108C3.45088 29.4836 3.743 29.734 4.19162 29.7548C4.25422 29.7548 4.31681 29.7548 4.38984 29.7548C10.274 29.7548 16.1582 29.7548 22.0424 29.7548C22.1676 29.7548 22.3033 29.7653 22.4284 29.734C22.7414 29.6609 22.9501 29.4627 22.9501 29.1393C22.9501 28.795 22.731 28.5968 22.3972 28.5342C22.2824 28.5133 22.1676 28.5237 22.0424 28.5237C19.1003 28.5237 16.1582 28.5237 13.2161 28.5237ZM13.2579 14.0532C10.2636 14.0532 7.26935 14.0532 4.27508 14.0532C3.75344 14.0532 3.47175 14.2619 3.46131 14.6375C3.45088 15.0235 3.743 15.2426 4.28551 15.2426C4.30638 15.2426 4.33768 15.2426 4.35855 15.2426C10.2532 15.2426 16.1478 15.2426 22.0424 15.2426C22.1572 15.2426 22.2824 15.253 22.3972 15.2321C22.731 15.1904 22.9084 14.9922 22.9188 14.6583C22.9292 14.2619 22.6893 14.0532 22.1885 14.0532C19.2151 14.0532 16.2417 14.0532 13.2579 14.0532ZM13.2266 24.9139C12.8718 24.9139 12.5276 24.9139 12.1728 24.9139C9.502 24.9139 6.84159 24.9139 4.17075 24.9139C3.73257 24.9139 3.45088 25.1643 3.46131 25.519C3.47175 25.8633 3.73257 26.0929 4.16032 26.0929C4.22292 26.0929 4.28552 26.0929 4.35855 26.0929C10.2532 26.0929 16.1478 26.0929 22.0424 26.0929C22.1468 26.0929 22.2511 26.0929 22.3554 26.0929C22.804 26.0616 23.0544 25.6651 22.8875 25.2582C22.7519 24.9452 22.4806 24.9035 22.1781 24.9035C19.1942 24.9139 16.2104 24.9139 13.2266 24.9139ZM13.2579 32.1648C12.0894 32.1648 10.9104 32.1648 9.74196 32.1648C7.86402 32.1648 5.99652 32.1648 4.11859 32.1648C3.73257 32.1648 3.47175 32.4048 3.46131 32.7387C3.45088 33.0829 3.73257 33.3438 4.12902 33.3542C4.20205 33.3542 4.28552 33.3542 4.35855 33.3542C10.2532 33.3542 16.1478 33.3542 22.0424 33.3542C22.1572 33.3542 22.2824 33.3646 22.3972 33.3438C22.7414 33.2916 22.9501 33.0308 22.9188 32.6865C22.8875 32.3213 22.6684 32.1648 22.1572 32.1648C19.1942 32.1648 16.2208 32.1648 13.2579 32.1648ZM12.3919 22.4935C15.0732 22.4935 17.7545 22.4935 20.4357 22.4935C20.5609 22.4935 20.6966 22.5039 20.8218 22.483C21.1243 22.4204 21.3121 22.2327 21.333 21.9197C21.3539 21.6275 21.2078 21.4189 20.9261 21.325C20.7905 21.2833 20.6444 21.2624 20.5088 21.2624C15.1149 21.2624 9.71066 21.2624 4.31681 21.2624C4.17075 21.2624 4.02469 21.2728 3.89949 21.3146C3.60737 21.4189 3.45088 21.638 3.48218 21.9405C3.51347 22.2431 3.7117 22.4309 4.01426 22.483C4.12902 22.5039 4.24378 22.4935 4.36898 22.4935C7.03982 22.4935 9.71066 22.4935 12.3919 22.4935ZM10.0967 10.3912V10.4017C9.5646 10.4017 9.03252 10.4017 8.50044 10.4017C7.07112 10.4017 5.63137 10.4017 4.20205 10.4121C3.75343 10.4121 3.45088 10.6834 3.46131 11.0485C3.47175 11.4032 3.743 11.6328 4.19162 11.6432C4.24379 11.6432 4.29595 11.6432 4.34812 11.6432C8.04139 11.6328 11.7451 11.6223 15.4384 11.6119C15.6888 11.6119 15.9391 11.6119 16.1791 11.5702C16.5025 11.518 16.6695 11.2885 16.659 10.9546C16.6486 10.5999 16.3982 10.3912 15.96 10.3912C14.009 10.3912 12.0581 10.3912 10.0967 10.3912ZM13.2266 4.38185C12.3711 4.38185 11.5051 4.38185 10.6496 4.38185C9.54373 4.38185 8.43784 4.38185 7.33194 4.38185C6.92506 4.38185 6.66423 4.63224 6.66423 4.98696C6.66423 5.32081 6.90419 5.56077 7.29021 5.6025C7.38411 5.61294 7.46757 5.6025 7.56147 5.6025C11.3382 5.6025 15.1149 5.6025 18.8917 5.6025C19.0482 5.6025 19.2047 5.61294 19.3507 5.56077C19.6324 5.44601 19.7993 5.24778 19.768 4.93479C19.7367 4.6218 19.549 4.44445 19.2464 4.39228C19.1316 4.37141 19.0169 4.38185 18.8917 4.38185C16.9929 4.38185 15.1045 4.38185 13.2266 4.38185Z" fill="#1DA1F2"/>
<path d="M29.6058 16.964C30.0023 18.1324 30.3883 19.3009 30.7952 20.4694C32.0054 23.9645 33.2365 27.4595 34.4467 30.9546C34.791 31.9457 35.104 32.9577 35.49 33.928C35.73 34.5331 35.5422 34.9817 35.1144 35.3573C34.3946 35.9937 33.5286 36.2858 32.5584 36.171C32.068 36.1084 31.7237 35.8789 31.5568 35.3781C30.9517 33.5941 30.3153 31.8205 29.6997 30.0469C29.6789 29.9843 29.6476 29.9321 29.6163 29.8695L29.6058 29.8487C29.5954 29.7965 29.585 29.7339 29.5745 29.6817C29.1885 28.5654 28.8129 27.4491 28.4269 26.3328C28.02 25.1747 27.6027 24.0166 27.1854 22.8586C26.9559 22.17 26.7263 21.4814 26.4864 20.7929C26.0169 19.4053 25.537 18.0177 25.0675 16.6301C25.3909 16.4632 25.7769 16.4319 26.0899 16.2336C26.1525 16.2128 26.2151 16.2023 26.2777 16.1815C27.1854 15.9207 28.0513 15.5138 28.9694 15.2947C29.1989 15.8581 29.3972 16.411 29.6058 16.964Z" fill="#636C77"/>
<path d="M13.2256 17.6628C16.1573 17.6628 19.0785 17.6628 22.0102 17.6628C22.125 17.6628 22.2501 17.6524 22.3649 17.6628C22.7092 17.6941 22.9283 17.9028 22.9492 18.2367C22.9805 18.5601 22.7822 18.7792 22.4692 18.8626C22.3336 18.8939 22.1875 18.8939 22.0415 18.8939C16.1573 18.8939 10.2731 18.8939 4.38891 18.8939C4.32631 18.8939 4.26371 18.8939 4.19068 18.8939C3.7525 18.8731 3.44994 18.6018 3.46038 18.2471C3.47081 17.8924 3.7525 17.6628 4.20111 17.6628C7.20581 17.6628 10.2105 17.6628 13.2256 17.6628Z" fill="#F5F5F5"/>
<path d="M13.2152 28.5242C16.1573 28.5242 19.0994 28.5242 22.0415 28.5242C22.1563 28.5242 22.2815 28.5137 22.3962 28.5346C22.7301 28.5972 22.9492 28.7954 22.9492 29.1397C22.9492 29.4631 22.7405 29.6614 22.4275 29.7344C22.3023 29.7657 22.1667 29.7553 22.0415 29.7553C16.1573 29.7553 10.2731 29.7553 4.38891 29.7553C4.32632 29.7553 4.26372 29.7553 4.19069 29.7553C3.74207 29.7344 3.44995 29.484 3.46038 29.1084C3.47082 28.7537 3.75251 28.5242 4.19069 28.5242C7.20582 28.5137 10.2105 28.5242 13.2152 28.5242Z" fill="#F5F5F5"/>
<path d="M13.2572 14.0537C16.2411 14.0537 19.2145 14.0537 22.1983 14.0537C22.6887 14.0537 22.939 14.2624 22.9286 14.6588C22.9182 14.9927 22.7513 15.1909 22.407 15.2326C22.2922 15.2431 22.1774 15.2431 22.0522 15.2431C16.1576 15.2431 10.263 15.2431 4.36836 15.2431C4.34749 15.2431 4.3162 15.2431 4.29533 15.2431C3.75282 15.2431 3.46069 15.024 3.47113 14.638C3.48156 14.2624 3.76325 14.0537 4.2849 14.0537C7.26872 14.0537 10.263 14.0537 13.2572 14.0537Z" fill="#F5F5F5"/>
<path d="M13.2261 24.9139C16.21 24.9139 19.1834 24.9139 22.1672 24.9139C22.4697 24.9139 22.7514 24.9452 22.8766 25.2686C23.0436 25.6755 22.7932 26.072 22.3446 26.1033C22.2402 26.1137 22.1359 26.1033 22.0316 26.1033C16.1369 26.1033 10.2423 26.1033 4.34768 26.1033C4.28509 26.1033 4.22249 26.1033 4.14946 26.1033C3.73214 26.0928 3.46088 25.8737 3.45045 25.5295C3.44001 25.1747 3.7217 24.9243 4.15989 24.9243C6.83073 24.9243 9.49113 24.9243 12.162 24.9243C12.5271 24.9139 12.8818 24.9139 13.2261 24.9139Z" fill="#F5F5F5"/>
<path d="M13.2569 32.1648C16.2199 32.1648 19.1933 32.1648 22.1563 32.1648C22.6675 32.1648 22.897 32.3213 22.9179 32.6864C22.9492 33.0307 22.7405 33.302 22.3962 33.3437C22.2815 33.3646 22.1667 33.3541 22.0415 33.3541C16.1469 33.3541 10.2523 33.3541 4.35763 33.3541C4.2846 33.3541 4.20113 33.3541 4.1281 33.3541C3.73165 33.3437 3.44996 33.0829 3.46039 32.7386C3.47083 32.4048 3.72122 32.1648 4.11767 32.1648C5.9956 32.1544 7.8631 32.1648 9.74104 32.1648C10.9095 32.1648 12.0885 32.1648 13.2569 32.1648Z" fill="#F5F5F5"/>
<path d="M12.3917 22.4938C9.71047 22.4938 7.0292 22.4938 4.34793 22.4938C4.23317 22.4938 4.10797 22.5042 3.99321 22.4833C3.69065 22.4312 3.49243 22.2538 3.46113 21.9408C3.42983 21.6383 3.58632 21.4088 3.87845 21.3149C4.01407 21.2731 4.16014 21.2627 4.29576 21.2627C9.68961 21.2627 15.0939 21.2627 20.4877 21.2627C20.6234 21.2627 20.7799 21.2731 20.905 21.3253C21.1867 21.4192 21.3328 21.6278 21.3119 21.92C21.2911 22.233 21.1033 22.4207 20.8007 22.4833C20.6755 22.5042 20.5399 22.4938 20.4147 22.4938C17.7543 22.4938 15.073 22.4938 12.3917 22.4938Z" fill="#F5F5F5"/>
<path d="M27.1959 22.8691C27.1855 24.2775 27.1855 25.6964 27.175 27.1048C26.862 26.844 26.8516 26.4476 26.7264 26.1033C25.9335 23.8706 25.1615 21.6275 24.3894 19.3844C24.3373 19.2384 24.2851 19.0923 24.2225 18.9463C23.8678 18.0699 23.6904 17.1727 23.7426 16.2128C23.7947 15.1591 23.753 14.1054 23.753 13.0516C23.753 12.7491 23.7113 12.4152 24.0556 12.2692C24.379 12.1335 24.6294 12.3213 24.8276 12.5613C24.8485 12.5926 24.8902 12.603 24.9215 12.6239C24.9319 13.1455 24.9424 13.6672 24.9528 14.1888C24.9528 14.5644 24.9319 14.94 24.9424 15.3156C24.9528 15.7538 24.8693 16.2024 25.078 16.6093C25.5475 17.9969 26.0274 19.3844 26.4969 20.772C26.7368 21.4919 26.9664 22.1805 27.1959 22.8691Z" fill="#0E8AD7"/>
<path d="M10.0957 10.3916C12.0467 10.3916 13.9977 10.3916 15.9591 10.3916C16.3868 10.3916 16.6476 10.6003 16.6581 10.955C16.6685 11.2888 16.512 11.5079 16.1782 11.5705C15.9382 11.6123 15.6878 11.6123 15.4374 11.6123C11.7442 11.6227 8.04045 11.6331 4.34718 11.6436C4.29501 11.6436 4.24285 11.6436 4.19068 11.6436C3.7525 11.6331 3.47081 11.4036 3.46038 11.0489C3.44994 10.6837 3.7525 10.4125 4.20111 10.4125C5.63043 10.402 7.07018 10.402 8.4995 10.402C9.03158 10.402 9.56366 10.402 10.0957 10.402C10.0957 10.3916 10.0957 10.3916 10.0957 10.3916Z" fill="#F5F5F5"/>
<path d="M24.9524 14.22C24.9419 13.6983 24.9315 13.1767 24.9211 12.655C24.9211 12.3212 24.9315 11.9873 24.9315 11.643C24.9315 11.3613 25.0358 11.1318 25.3175 11.0379C25.5992 10.944 25.7974 11.0796 25.9748 11.3092C26.3608 11.8099 26.7677 12.2899 27.1746 12.7802C27.258 12.9889 27.4876 13.1141 27.5189 13.3436C26.9868 13.5105 26.4547 13.6774 25.9331 13.907C25.6201 14.0113 25.2862 14.1156 24.9524 14.22Z" fill="#F5F5F5"/>
<path d="M25.9434 13.9071C26.4546 13.6776 26.9867 13.5107 27.5292 13.3438C28.0717 13.9593 28.6769 14.5227 28.9898 15.3051C28.0613 15.5242 27.2058 15.9311 26.2981 16.1919C26.2355 16.2128 26.1729 16.2232 26.1103 16.2441C26.0164 15.9311 25.933 15.6286 25.9434 15.2947C25.9643 14.8357 25.9434 14.3766 25.9434 13.9071Z" fill="#DFBAA3"/>
<path d="M25.9442 13.9072C25.9442 14.3767 25.9547 14.8358 25.9338 15.3052C25.9234 15.6391 26.0068 15.9417 26.1007 16.2546C25.7877 16.4529 25.4017 16.4842 25.0783 16.6511C24.8696 16.2338 24.9531 15.7852 24.9427 15.3574C24.9322 14.9818 24.9531 14.6062 24.9531 14.2306C25.287 14.1159 25.6208 14.0116 25.9442 13.9072Z" fill="#D7AC8F"/>
</svg>
