<svg width="40" height="40" viewBox="0 0 40 40" fill="none" xmlns="http://www.w3.org/2000/svg">
<path d="M34.0086 4.25252C35.3219 4.57772 36.4851 5.21562 37.4482 6.12869C38.7365 7.34194 39.5496 8.85538 39.8622 10.619C39.9623 11.1818 39.9498 11.7322 39.9498 12.295C39.9498 18.9992 39.9623 25.7034 39.9373 32.42C39.9373 34.2337 39.2494 35.8347 38.0861 37.198C36.9229 38.5739 35.4595 39.4744 33.6834 39.8497C33.2707 39.9372 32.8579 39.9997 32.4451 39.9997C24.1775 39.9997 15.8974 39.9997 7.62971 39.9872C5.81609 39.9872 4.2276 39.2993 2.85174 38.1486C1.5009 36.9979 0.575329 35.5345 0.212603 33.7584C0.125049 33.3456 0.0500019 32.9328 0.0500019 32.5076C0.0500019 25.5282 0.0374942 18.5364 0.0625097 11.5446C0.0625097 9.81848 0.725422 8.29253 1.80109 6.9542C2.90177 5.57835 4.31515 4.7028 6.0037 4.25252C6.01621 5.46578 6.02872 6.67903 6.02872 7.90479C6.02872 8.30504 6.09126 8.68027 6.30389 9.03049C6.75417 9.79347 7.65473 10.1812 8.51777 9.95607C9.3808 9.74344 9.99368 8.99297 10.0062 8.09241C10.0312 6.71655 10.0312 5.35321 10.0437 3.97735C12.6954 3.97735 15.347 3.97735 18.0112 3.97735C18.0237 5.26565 18.0362 6.56646 18.0362 7.85476C18.0362 8.26752 18.0862 8.65526 18.3114 9.01799C18.7616 9.78096 19.6622 10.1687 20.5252 9.94356C21.3883 9.73093 22.0011 8.98046 22.0137 8.0799C22.0387 6.70405 22.0387 5.3407 22.0512 3.96484C24.7028 3.96484 27.3545 3.96484 30.0186 3.96484C30.0311 5.25314 30.0436 6.55395 30.0436 7.84225C30.0436 8.25501 30.0937 8.64275 30.3188 9.00548C30.7691 9.76845 31.6697 10.1562 32.5327 9.94356C33.3832 9.73093 34.0086 8.98046 34.0336 8.0799C33.9961 6.80411 33.9961 5.52832 34.0086 4.25252ZM18.3489 24.9029C17.3608 23.8397 16.4352 22.8141 15.4596 21.8134C14.559 20.8879 13.3333 20.8628 12.5077 21.6884C11.6822 22.5139 11.7448 23.7772 12.6703 24.6777C14.0837 26.0661 15.4971 27.467 16.9105 28.8553C17.9111 29.8309 19.1619 29.8309 20.15 28.8678C21.801 27.2418 23.4395 25.6283 25.0906 24.0023C26.554 22.5514 28.0299 21.113 29.4933 19.6621C30.0937 19.0742 30.2813 18.3488 29.9936 17.5483C29.7184 16.7728 29.1431 16.3225 28.3301 16.2225C27.6672 16.1349 27.1168 16.3851 26.6415 16.8479C24.5652 18.8741 22.4764 20.9004 20.4002 22.9266C19.7748 23.527 19.1494 24.1274 18.3489 24.9029Z" fill="#1DA1F2"/>
<path d="M10.0313 3.97755C10.0187 5.35341 10.0313 6.71675 9.99373 8.09261C9.98122 8.99317 9.35583 9.74364 8.5053 9.95627C7.65478 10.1689 6.75422 9.79367 6.29143 9.03069C6.0913 8.68047 6.02876 8.30524 6.01626 7.90499C6.01626 6.69174 6.00375 5.47848 5.99124 4.25272C6.00375 3.53978 6.00375 2.82684 6.01626 2.10138C6.04127 0.88813 6.84177 0.0250931 7.99249 0.0125854C9.16822 7.75913e-05 9.99373 0.863114 10.0062 2.10138C10.0187 2.72677 10.0187 3.35216 10.0313 3.97755Z" fill="#0C4F6C"/>
<path d="M22.0136 3.97798C22.0011 5.35384 22.0136 6.71719 21.9761 8.09304C21.9636 8.9936 21.3382 9.74407 20.4877 9.9567C19.6372 10.1693 18.7366 9.7941 18.2738 9.03112C18.0612 8.6684 18.0112 8.28066 17.9986 7.8679C17.9986 6.5796 17.9861 5.27879 17.9736 3.99049C17.9861 3.3526 17.9861 2.7147 17.9986 2.0768C18.0237 0.888563 18.8367 0.0380345 19.9624 0.0255268C21.1131 0.013019 21.9511 0.863548 21.9761 2.0768C22.0011 2.70219 22.0011 3.34009 22.0136 3.97798Z" fill="#0C4F6C"/>
<path d="M34.0086 4.25278C33.9961 5.52857 34.0086 6.80437 33.9711 8.08016C33.9461 8.98072 33.3332 9.73119 32.4701 9.94382C31.6196 10.1565 30.7191 9.78122 30.2563 9.00573C30.0436 8.64301 29.9936 8.25527 29.9811 7.84251C29.9811 6.55421 29.9686 5.2534 29.9561 3.9651C29.9686 3.3272 29.9686 2.68931 29.9811 2.05141C30.0061 0.863172 30.8191 0.0126439 31.9448 0.000136145C33.0955 -0.0123716 33.9336 0.838157 33.9586 2.05141C33.9961 2.78937 33.9961 3.52733 34.0086 4.25278Z" fill="#0C4F6C"/>
<path d="M18.3489 24.9028C19.1494 24.1273 19.7748 23.5269 20.4002 22.9266C22.489 20.9003 24.5653 18.874 26.6415 16.8478C27.1168 16.385 27.6672 16.1348 28.3301 16.2224C29.1431 16.3224 29.7185 16.7727 29.9936 17.5482C30.2688 18.3487 30.0812 19.0617 29.4933 19.662C28.0299 21.1129 26.554 22.5513 25.0906 24.0022C23.4396 25.6282 21.801 27.2417 20.15 28.8677C19.1619 29.8308 17.9111 29.8308 16.9105 28.8552C15.4971 27.4669 14.0837 26.0785 12.6704 24.6776C11.7448 23.7646 11.6822 22.5138 12.5078 21.6883C13.3333 20.8628 14.559 20.8878 15.4596 21.8134C16.4227 22.814 17.3608 23.8396 18.3489 24.9028Z" fill="white"/>
</svg>
