<svg width="28" height="28" viewBox="0 0 28 28" fill="none" xmlns="http://www.w3.org/2000/svg">
<path d="M13.9997 19.5423C14.2525 19.5423 14.4617 19.4599 14.6273 19.295C14.7922 19.1293 14.8747 18.9201 14.8747 18.6673V14.8757H18.6663C18.9191 14.8757 19.1283 14.7928 19.294 14.6272C19.4589 14.4623 19.5413 14.2534 19.5413 14.0007C19.5413 13.7479 19.4589 13.5387 19.294 13.373C19.1283 13.2081 18.9191 13.1257 18.6663 13.1257H14.8747V9.33398C14.8747 9.08121 14.7922 8.87237 14.6273 8.70748C14.4617 8.54182 14.2525 8.45898 13.9997 8.45898C13.7469 8.45898 13.5381 8.54182 13.3732 8.70748C13.2075 8.87237 13.1247 9.08121 13.1247 9.33398V13.1257H9.33301C9.08023 13.1257 8.8714 13.2081 8.70651 13.373C8.54084 13.5387 8.45801 13.7479 8.45801 14.0007C8.45801 14.2534 8.54084 14.4623 8.70651 14.6272C8.8714 14.7928 9.08023 14.8757 9.33301 14.8757H13.1247V18.6673C13.1247 18.9201 13.2075 19.1293 13.3732 19.295C13.5381 19.4599 13.7469 19.5423 13.9997 19.5423ZM6.18301 23.9173C5.59967 23.9173 5.10384 23.7132 4.69551 23.3048C4.28717 22.8965 4.08301 22.4007 4.08301 21.8173V6.18398C4.08301 5.60065 4.28717 5.10482 4.69551 4.69648C5.10384 4.28815 5.59967 4.08398 6.18301 4.08398H21.8163C22.3997 4.08398 22.8955 4.28815 23.3038 4.69648C23.7122 5.10482 23.9163 5.60065 23.9163 6.18398V21.8173C23.9163 22.4007 23.7122 22.8965 23.3038 23.3048C22.8955 23.7132 22.3997 23.9173 21.8163 23.9173H6.18301ZM6.18301 22.1673H21.8163C21.9136 22.1673 21.9964 22.1335 22.0648 22.0658C22.1325 21.9974 22.1663 21.9145 22.1663 21.8173V6.18398C22.1663 6.08676 22.1325 6.00432 22.0648 5.93665C21.9964 5.86821 21.9136 5.83398 21.8163 5.83398H6.18301C6.08579 5.83398 6.00334 5.86821 5.93567 5.93665C5.86723 6.00432 5.83301 6.08676 5.83301 6.18398V21.8173C5.83301 21.9145 5.86723 21.9974 5.93567 22.0658C6.00334 22.1335 6.08579 22.1673 6.18301 22.1673ZM5.83301 22.1673C5.83301 22.1673 5.83301 22.1335 5.83301 22.0658C5.83301 21.9974 5.83301 21.9145 5.83301 21.8173V6.18398C5.83301 6.08676 5.83301 6.00432 5.83301 5.93665C5.83301 5.86821 5.83301 5.83398 5.83301 5.83398C5.83301 5.83398 5.83301 5.86821 5.83301 5.93665C5.83301 6.00432 5.83301 6.08676 5.83301 6.18398V21.8173C5.83301 21.9145 5.83301 21.9974 5.83301 22.0658C5.83301 22.1335 5.83301 22.1673 5.83301 22.1673Z" fill="#1DA1F2"/>
</svg>
