<svg width="19" height="12" viewBox="0 0 19 12" fill="none" xmlns="http://www.w3.org/2000/svg">
<path d="M1.13672 12C0.853385 12 0.616052 11.904 0.424719 11.712C0.232719 11.5207 0.136719 11.2833 0.136719 11C0.136719 10.7167 0.232719 10.4793 0.424719 10.288C0.616052 10.096 0.853385 10 1.13672 10H17.1367C17.4201 10 17.6574 10.096 17.8487 10.288C18.0407 10.4793 18.1367 10.7167 18.1367 11C18.1367 11.2833 18.0407 11.5207 17.8487 11.712C17.6574 11.904 17.4201 12 17.1367 12H1.13672ZM1.13672 7C0.853385 7 0.616052 6.904 0.424719 6.712C0.232719 6.52067 0.136719 6.28333 0.136719 6C0.136719 5.71667 0.232719 5.479 0.424719 5.287C0.616052 5.09567 0.853385 5 1.13672 5H17.1367C17.4201 5 17.6574 5.09567 17.8487 5.287C18.0407 5.479 18.1367 5.71667 18.1367 6C18.1367 6.28333 18.0407 6.52067 17.8487 6.712C17.6574 6.904 17.4201 7 17.1367 7H1.13672ZM1.13672 2C0.853385 2 0.616052 1.90433 0.424719 1.713C0.232719 1.521 0.136719 1.28333 0.136719 1C0.136719 0.716667 0.232719 0.479 0.424719 0.287C0.616052 0.0956668 0.853385 0 1.13672 0H17.1367C17.4201 0 17.6574 0.0956668 17.8487 0.287C18.0407 0.479 18.1367 0.716667 18.1367 1C18.1367 1.28333 18.0407 1.521 17.8487 1.713C17.6574 1.90433 17.4201 2 17.1367 2H1.13672Z" fill="white"/>
</svg>
