<svg width="24" height="24" viewBox="0 0 24 24" fill="none" xmlns="http://www.w3.org/2000/svg">
<path d="M12 23.6666C10.4056 23.6666 8.89861 23.3602 7.47916 22.7473C6.05972 22.1352 4.82033 21.2991 3.761 20.239C2.70088 19.1796 1.86477 17.9403 1.25266 16.5208C0.639773 15.1014 0.333328 13.5944 0.333328 12C0.333328 10.3861 0.649106 8.86942 1.28066 7.44998C1.913 6.03054 2.76894 4.79581 3.8485 3.74581C4.92727 2.69581 6.18611 1.86437 7.625 1.25148C9.06388 0.639369 10.6 0.333313 12.2333 0.333313C13.7889 0.333313 15.2569 0.600869 16.6375 1.13598C18.0181 1.67031 19.2283 2.4092 20.2682 3.35265C21.3088 4.29531 22.1352 5.41337 22.7473 6.70681C23.3602 7.99948 23.6667 9.39443 23.6667 10.8916C23.6667 13.1278 22.9861 14.8435 21.625 16.039C20.2639 17.2352 18.6111 17.8333 16.6667 17.8333H14.5083C14.3333 17.8333 14.212 17.8819 14.1443 17.9791C14.0759 18.0764 14.0417 18.1833 14.0417 18.3C14.0417 18.5333 14.1875 18.8685 14.4792 19.3056C14.7708 19.7435 14.9167 20.2444 14.9167 20.8083C14.9167 21.7805 14.6491 22.5 14.114 22.9666C13.5797 23.4333 12.875 23.6666 12 23.6666ZM5.58333 13.1666C6.08888 13.1666 6.50694 13.0014 6.8375 12.6708C7.16805 12.3403 7.33333 11.9222 7.33333 11.4166C7.33333 10.9111 7.16805 10.493 6.8375 10.1625C6.50694 9.83193 6.08888 9.66665 5.58333 9.66665C5.07777 9.66665 4.65972 9.83193 4.32916 10.1625C3.99861 10.493 3.83333 10.9111 3.83333 11.4166C3.83333 11.9222 3.99861 12.3403 4.32916 12.6708C4.65972 13.0014 5.07777 13.1666 5.58333 13.1666ZM9.08333 8.49998C9.58888 8.49998 10.0069 8.3347 10.3375 8.00415C10.6681 7.67359 10.8333 7.25554 10.8333 6.74998C10.8333 6.24442 10.6681 5.82637 10.3375 5.49581C10.0069 5.16526 9.58888 4.99998 9.08333 4.99998C8.57777 4.99998 8.15972 5.16526 7.82916 5.49581C7.49861 5.82637 7.33333 6.24442 7.33333 6.74998C7.33333 7.25554 7.49861 7.67359 7.82916 8.00415C8.15972 8.3347 8.57777 8.49998 9.08333 8.49998ZM14.9167 8.49998C15.4222 8.49998 15.8403 8.3347 16.1708 8.00415C16.5014 7.67359 16.6667 7.25554 16.6667 6.74998C16.6667 6.24442 16.5014 5.82637 16.1708 5.49581C15.8403 5.16526 15.4222 4.99998 14.9167 4.99998C14.4111 4.99998 13.9931 5.16526 13.6625 5.49581C13.3319 5.82637 13.1667 6.24442 13.1667 6.74998C13.1667 7.25554 13.3319 7.67359 13.6625 8.00415C13.9931 8.3347 14.4111 8.49998 14.9167 8.49998ZM18.4167 13.1666C18.9222 13.1666 19.3403 13.0014 19.6708 12.6708C20.0014 12.3403 20.1667 11.9222 20.1667 11.4166C20.1667 10.9111 20.0014 10.493 19.6708 10.1625C19.3403 9.83193 18.9222 9.66665 18.4167 9.66665C17.9111 9.66665 17.4931 9.83193 17.1625 10.1625C16.8319 10.493 16.6667 10.9111 16.6667 11.4166C16.6667 11.9222 16.8319 12.3403 17.1625 12.6708C17.4931 13.0014 17.9111 13.1666 18.4167 13.1666ZM12 21.3333C12.175 21.3333 12.3162 21.2847 12.4235 21.1875C12.5301 21.0903 12.5833 20.9639 12.5833 20.8083C12.5833 20.5361 12.4375 20.2153 12.1458 19.8458C11.8542 19.4764 11.7083 18.9222 11.7083 18.1833C11.7083 17.3666 11.9903 16.7153 12.5542 16.2291C13.1181 15.743 13.8083 15.5 14.625 15.5H16.6667C17.95 15.5 19.0486 15.1255 19.9625 14.3765C20.8764 13.6283 21.3333 12.4666 21.3333 10.8916C21.3333 8.53887 20.4342 6.57965 18.636 5.01398C16.837 3.44909 14.7028 2.66665 12.2333 2.66665C9.58888 2.66665 7.33333 3.57081 5.46666 5.37915C3.6 7.18748 2.66666 9.39442 2.66666 12C2.66666 14.5861 3.57588 16.7884 5.39433 18.6068C7.212 20.4245 9.41388 21.3333 12 21.3333Z" fill="black"/>
</svg>
