<svg width="24" height="24" viewBox="0 0 24 24" fill="none" xmlns="http://www.w3.org/2000/svg">
<g clip-path="url(#clip0_1_891)">
<path fill-rule="evenodd" clip-rule="evenodd" d="M18.54 9.00093C18.54 7.04733 16.9536 5.46094 15 5.46094H8.99996C7.04636 5.46094 5.45996 7.04733 5.45996 9.00093V15.0009C5.45996 16.9545 7.04636 18.5409 8.99996 18.5409H15C16.9536 18.5409 18.54 16.9545 18.54 15.0009V9.00093ZM17.46 9.00093V15.0009C17.46 16.3587 16.3578 17.4609 15 17.4609H8.99996C7.64216 17.4609 6.53996 16.3587 6.53996 15.0009V9.00093C6.53996 7.64313 7.64216 6.54093 8.99996 6.54093H15C16.3578 6.54093 17.46 7.64313 17.46 9.00093ZM14.934 11.5437C14.745 10.2663 13.7346 9.25593 12.4572 9.06693C12.3144 9.04533 12.1704 9.03514 12.0258 9.03514C10.413 9.03514 9.08576 10.3623 9.08576 11.9751C9.08576 13.5879 10.413 14.9151 12.0258 14.9151C13.6386 14.9151 14.9658 13.5879 14.9658 11.9751C14.9658 11.8305 14.9556 11.6865 14.934 11.5437ZM13.866 11.7021C13.8792 11.7927 13.8858 11.8839 13.8858 11.9751C13.8858 12.9951 13.0464 13.8351 12.0258 13.8351C11.0058 13.8351 10.1658 12.9951 10.1658 11.9751C10.1658 10.9545 11.0058 10.1151 12.0258 10.1151C12.117 10.1151 12.2082 10.1217 12.2988 10.1349C13.107 10.2549 13.746 10.8939 13.866 11.7021ZM15.3 8.16094C15.5982 8.16094 15.84 8.40273 15.84 8.70093C15.84 8.99913 15.5982 9.24093 15.3 9.24093C15.0018 9.24093 14.76 8.99913 14.76 8.70093C14.76 8.40273 15.0018 8.16094 15.3 8.16094Z" fill="white"/>
</g>
<circle cx="12" cy="12" r="11.5" stroke="white"/>
<defs>
<clipPath id="clip0_1_891">
<rect width="14.4" height="14.4" fill="white" transform="translate(4.7998 4.80078)"/>
</clipPath>
</defs>
</svg>
