<svg width="26" height="26" viewBox="0 0 26 26" fill="none" xmlns="http://www.w3.org/2000/svg">
<path d="M13 16.5C13.9722 16.5 14.7986 16.1597 15.4792 15.4792C16.1597 14.7986 16.5 13.9722 16.5 13C16.5 12.0278 16.1597 11.2014 15.4792 10.5209C14.7986 9.8403 13.9722 9.50002 13 9.50002C12.0278 9.50002 11.2014 9.8403 10.5208 10.5209C9.84028 11.2014 9.5 12.0278 9.5 13C9.5 13.9722 9.84028 14.7986 10.5208 15.4792C11.2014 16.1597 12.0278 16.5 13 16.5ZM13 18.8334C11.3861 18.8334 10.0106 18.2644 8.87351 17.1265C7.73562 15.9894 7.16667 14.6139 7.16667 13C7.16667 11.3861 7.73562 10.0102 8.87351 8.87235C10.0106 7.73524 11.3861 7.16669 13 7.16669C14.6139 7.16669 15.9898 7.73524 17.1277 8.87235C18.2648 10.0102 18.8333 11.3861 18.8333 13C18.8333 14.6139 18.2648 15.9894 17.1277 17.1265C15.9898 18.2644 14.6139 18.8334 13 18.8334ZM1.33334 14.1667C1.00278 14.1667 0.725894 14.0547 0.502672 13.8307C0.278672 13.6075 0.166672 13.3306 0.166672 13C0.166672 12.6695 0.278672 12.3922 0.502672 12.1682C0.725894 11.945 1.00278 11.8334 1.33334 11.8334H3.66667C3.99723 11.8334 4.2745 11.945 4.4985 12.1682C4.72173 12.3922 4.83334 12.6695 4.83334 13C4.83334 13.3306 4.72173 13.6075 4.4985 13.8307C4.2745 14.0547 3.99723 14.1667 3.66667 14.1667H1.33334ZM22.3333 14.1667C22.0028 14.1667 21.7259 14.0547 21.5027 13.8307C21.2787 13.6075 21.1667 13.3306 21.1667 13C21.1667 12.6695 21.2787 12.3922 21.5027 12.1682C21.7259 11.945 22.0028 11.8334 22.3333 11.8334H24.6667C24.9972 11.8334 25.2741 11.945 25.4973 12.1682C25.7213 12.3922 25.8333 12.6695 25.8333 13C25.8333 13.3306 25.7213 13.6075 25.4973 13.8307C25.2741 14.0547 24.9972 14.1667 24.6667 14.1667H22.3333ZM13 4.83335C12.6694 4.83335 12.3926 4.72135 12.1693 4.49735C11.9453 4.27413 11.8333 3.99724 11.8333 3.66669V1.33335C11.8333 1.0028 11.9453 0.72552 12.1693 0.50152C12.3926 0.278298 12.6694 0.166687 13 0.166687C13.3306 0.166687 13.6078 0.278298 13.8318 0.50152C14.0551 0.72552 14.1667 1.0028 14.1667 1.33335V3.66669C14.1667 3.99724 14.0551 4.27413 13.8318 4.49735C13.6078 4.72135 13.3306 4.83335 13 4.83335ZM13 25.8334C12.6694 25.8334 12.3926 25.7214 12.1693 25.4974C11.9453 25.2741 11.8333 24.9972 11.8333 24.6667V22.3334C11.8333 22.0028 11.9453 21.7259 12.1693 21.5027C12.3926 21.2787 12.6694 21.1667 13 21.1667C13.3306 21.1667 13.6078 21.2787 13.8318 21.5027C14.0551 21.7259 14.1667 22.0028 14.1667 22.3334V24.6667C14.1667 24.9972 14.0551 25.2741 13.8318 25.4974C13.6078 25.7214 13.3306 25.8334 13 25.8334ZM5.59167 7.22502L4.3375 6.00002C4.10417 5.78613 3.99217 5.51391 4.00151 5.18335C4.01162 4.8528 4.12362 4.57085 4.3375 4.33752C4.57084 4.10419 4.85278 3.98752 5.18334 3.98752C5.51389 3.98752 5.78612 4.10419 6 4.33752L7.22501 5.59169C7.43889 5.82502 7.54584 6.09724 7.54584 6.40835C7.54584 6.71946 7.43889 6.99169 7.22501 7.22502C7.01112 7.45835 6.74395 7.56996 6.4235 7.55985C6.10228 7.55052 5.82501 7.43891 5.59167 7.22502ZM20 21.6625L18.775 20.4084C18.5611 20.175 18.4542 19.8981 18.4542 19.5777C18.4542 19.2565 18.5611 18.9889 18.775 18.775C18.9889 18.5417 19.2564 18.4301 19.5777 18.4402C19.8981 18.4495 20.175 18.5611 20.4083 18.775L21.6625 20C21.8958 20.2139 22.0078 20.4861 21.9985 20.8167C21.9884 21.1472 21.8764 21.4292 21.6625 21.6625C21.4292 21.8959 21.1472 22.0125 20.8167 22.0125C20.4861 22.0125 20.2139 21.8959 20 21.6625ZM18.775 7.22502C18.5417 7.01113 18.4301 6.74358 18.4402 6.42235C18.4495 6.10191 18.5611 5.82502 18.775 5.59169L20 4.33752C20.2139 4.10419 20.4861 3.99219 20.8167 4.00152C21.1472 4.01163 21.4292 4.12363 21.6625 4.33752C21.8958 4.57085 22.0125 4.8528 22.0125 5.18335C22.0125 5.51391 21.8958 5.78613 21.6625 6.00002L20.4083 7.22502C20.175 7.43891 19.9028 7.54585 19.5917 7.54585C19.2806 7.54585 19.0083 7.43891 18.775 7.22502ZM4.3375 21.6625C4.10417 21.4292 3.9875 21.1472 3.9875 20.8167C3.9875 20.4861 4.10417 20.2139 4.3375 20L5.59167 18.775C5.82501 18.5611 6.10228 18.4542 6.4235 18.4542C6.74395 18.4542 7.01112 18.5611 7.22501 18.775C7.45834 18.9889 7.57034 19.2565 7.561 19.5777C7.55089 19.8981 7.43889 20.175 7.22501 20.4084L6 21.6625C5.78612 21.8959 5.51389 22.0075 5.18334 21.9974C4.85278 21.988 4.57084 21.8764 4.3375 21.6625Z" fill="black"/>
</svg>
