<svg width="24" height="24" viewBox="0 0 24 24" fill="none" xmlns="http://www.w3.org/2000/svg">
<path d="M18.4795 13.4013V18.1926H15.7018V13.7221C15.7018 12.5991 15.3 11.8327 14.2945 11.8327C13.5269 11.8327 13.0702 12.3492 12.8693 12.8488C12.796 13.0275 12.7771 13.276 12.7771 13.5261V18.1926H9.99851C9.99851 18.1926 10.0359 10.6211 9.99851 9.83656H12.777V11.021C12.7714 11.0299 12.764 11.0394 12.7587 11.048H12.777V11.021C13.1461 10.4524 13.8053 9.64029 15.2809 9.64029C17.1091 9.64029 18.4795 10.8346 18.4795 13.4013ZM7.09187 5.80859C6.14132 5.80859 5.51953 6.43211 5.51953 7.25205C5.51953 8.05413 6.12332 8.69651 7.055 8.69651H7.07358C8.04256 8.69651 8.6452 8.05427 8.6452 7.25205C8.62691 6.43211 8.04256 5.80859 7.09187 5.80859ZM5.68456 18.1926H8.46217V9.83656H5.68456V18.1926Z" fill="white"/>
<circle cx="12" cy="12" r="11.5" stroke="white"/>
</svg>
