<svg width="28" height="28" viewBox="0 0 28 28" fill="none" xmlns="http://www.w3.org/2000/svg">
<path d="M7.35 25.084C6.76667 25.084 6.27083 24.8798 5.8625 24.4715C5.45417 24.0632 5.25 23.5673 5.25 22.984V12.0173C5.25 11.434 5.45417 10.9382 5.8625 10.5298C6.27083 10.1215 6.76667 9.91732 7.35 9.91732H8.75V7.58398C8.75 6.12565 9.26022 4.88587 10.2807 3.86465C11.3019 2.84421 12.5417 2.33398 14 2.33398C15.4583 2.33398 16.6981 2.84421 17.7193 3.86465C18.7398 4.88587 19.25 6.12565 19.25 7.58398V9.91732H20.65C21.2333 9.91732 21.7292 10.1215 22.1375 10.5298C22.5458 10.9382 22.75 11.434 22.75 12.0173V22.984C22.75 23.5673 22.5458 24.0632 22.1375 24.4715C21.7292 24.8798 21.2333 25.084 20.65 25.084H7.35ZM10.5 9.91732H17.5V7.58398C17.5 6.61176 17.1597 5.78537 16.4792 5.10482C15.7986 4.42426 14.9722 4.08398 14 4.08398C13.0278 4.08398 12.2014 4.42426 11.5208 5.10482C10.8403 5.78537 10.5 6.61176 10.5 7.58398V9.91732ZM7.35 23.334H20.65C20.7472 23.334 20.8301 23.3001 20.8985 23.2325C20.9662 23.164 21 23.0812 21 22.984V12.0173C21 11.9201 20.9662 11.8373 20.8985 11.7688C20.8301 11.7012 20.7472 11.6673 20.65 11.6673H7.35C7.25278 11.6673 7.17033 11.7012 7.10267 11.7688C7.03422 11.8373 7 11.9201 7 12.0173V22.984C7 23.0812 7.03422 23.164 7.10267 23.2325C7.17033 23.3001 7.25278 23.334 7.35 23.334ZM14 19.5423C14.5639 19.5423 15.0453 19.3432 15.4443 18.945C15.8426 18.546 16.0417 18.0645 16.0417 17.5007C16.0417 16.9368 15.8426 16.4553 15.4443 16.0563C15.0453 15.6581 14.5639 15.459 14 15.459C13.4361 15.459 12.9547 15.6581 12.5557 16.0563C12.1574 16.4553 11.9583 16.9368 11.9583 17.5007C11.9583 18.0645 12.1574 18.546 12.5557 18.945C12.9547 19.3432 13.4361 19.5423 14 19.5423Z" fill="#1DA1F2"/>
</svg>
