<svg width="28" height="28" viewBox="0 0 28 28" fill="none" xmlns="http://www.w3.org/2000/svg">
<path d="M17.967 12.5993C18.4142 12.5993 18.7786 12.4586 19.0602 12.177C19.3425 11.8947 19.4837 11.5299 19.4837 11.0827C19.4837 10.6355 19.3425 10.2707 19.0602 9.98835C18.7786 9.70679 18.4142 9.56602 17.967 9.56602C17.5392 9.56602 17.1795 9.70679 16.8878 9.98835C16.5962 10.2707 16.4503 10.6355 16.4503 11.0827C16.4503 11.5299 16.5915 11.8947 16.8738 12.177C17.1554 12.4586 17.5198 12.5993 17.967 12.5993ZM10.0337 12.5993C10.4614 12.5993 10.8212 12.4586 11.1128 12.177C11.4045 11.8947 11.5503 11.5299 11.5503 11.0827C11.5503 10.6355 11.4095 10.2707 11.128 9.98835C10.8457 9.70679 10.4809 9.56602 10.0337 9.56602C9.58644 9.56602 9.22205 9.70679 8.94049 9.98835C8.65816 10.2707 8.51699 10.6355 8.51699 11.0827C8.51699 11.5299 8.65816 11.8947 8.94049 12.177C9.22205 12.4586 9.58644 12.5993 10.0337 12.5993ZM14.0003 20.066C15.0698 20.066 16.0568 19.8086 16.9613 19.2937C17.8651 18.778 18.5989 18.0535 19.1628 17.1202C19.2795 16.9257 19.2892 16.7457 19.192 16.58C19.0948 16.4151 18.9295 16.3327 18.6962 16.3327H9.30449C9.07116 16.3327 8.90588 16.4151 8.80866 16.58C8.71144 16.7457 8.72116 16.9257 8.83783 17.1202C9.40171 18.0535 10.1359 18.778 11.0405 19.2937C11.9443 19.8086 12.9309 20.066 14.0003 20.066ZM14.0003 25.0827C12.4642 25.0827 11.0207 24.791 9.66966 24.2077C8.31788 23.6243 7.14616 22.8368 6.15449 21.8452C5.16283 20.8535 4.37533 19.6818 3.79199 18.33C3.20866 16.979 2.91699 15.5355 2.91699 13.9993C2.91699 12.4632 3.20866 11.0193 3.79199 9.66752C4.37533 8.31651 5.16283 7.14518 6.15449 6.15352C7.14616 5.16185 8.31788 4.37435 9.66966 3.79102C11.0207 3.20768 12.4642 2.91602 14.0003 2.91602C15.5364 2.91602 16.9804 3.20768 18.3322 3.79102C19.6832 4.37435 20.8545 5.16185 21.8462 6.15352C22.8378 7.14518 23.6253 8.31651 24.2087 9.66752C24.792 11.0193 25.0837 12.4632 25.0837 13.9993C25.0837 15.5355 24.792 16.979 24.2087 18.33C23.6253 19.6818 22.8378 20.8535 21.8462 21.8452C20.8545 22.8368 19.6832 23.6243 18.3322 24.2077C16.9804 24.791 15.5364 25.0827 14.0003 25.0827ZM14.0003 23.3327C16.5864 23.3327 18.7887 22.4238 20.6072 20.6062C22.4248 18.7877 23.3337 16.5855 23.3337 13.9993C23.3337 11.4132 22.4248 9.21096 20.6072 7.39252C18.7887 5.57485 16.5864 4.66602 14.0003 4.66602C11.4142 4.66602 9.21233 5.57485 7.39466 7.39252C5.57621 9.21096 4.66699 11.4132 4.66699 13.9993C4.66699 16.5855 5.57621 18.7877 7.39466 20.6062C9.21233 22.4238 11.4142 23.3327 14.0003 23.3327Z" fill="#1DA1F2"/>
</svg>
