<svg width="28" height="28" viewBox="0 0 28 28" fill="none" xmlns="http://www.w3.org/2000/svg">
<path d="M3.79128 11.6663C3.5385 11.6663 3.32967 11.5788 3.16478 11.4038C2.99911 11.2288 2.926 11.0246 2.94545 10.7913C3.06211 9.4885 3.39267 8.239 3.93711 7.04278C4.48156 5.84733 5.21072 4.78294 6.12461 3.84961C6.28017 3.69405 6.48434 3.61628 6.73711 3.61628C6.98989 3.61628 7.20378 3.70378 7.37878 3.87878C7.53433 4.03433 7.61717 4.22878 7.62728 4.46211C7.63661 4.69544 7.55378 4.90933 7.37878 5.10378C6.601 5.88155 5.98383 6.7515 5.52728 7.71361C5.06995 8.6765 4.79267 9.70239 4.69545 10.7913C4.676 11.0441 4.58384 11.2529 4.41895 11.4178C4.25328 11.5834 4.04406 11.6663 3.79128 11.6663ZM24.2079 11.6663C23.9746 11.6663 23.7704 11.5834 23.5954 11.4178C23.4204 11.2529 23.3232 11.0441 23.3038 10.7913C23.2066 9.70239 22.9297 8.6765 22.4731 7.71361C22.0158 6.7515 21.3982 5.88155 20.6204 5.10378C20.4649 4.90933 20.3871 4.69544 20.3871 4.46211C20.3871 4.22878 20.4746 4.03433 20.6496 3.87878C20.8246 3.70378 21.0338 3.61628 21.2773 3.61628C21.5199 3.61628 21.7191 3.69405 21.8746 3.84961C22.7885 4.78294 23.5177 5.84733 24.0621 7.04278C24.6066 8.239 24.9371 9.4885 25.0538 10.7913C25.0732 11.0246 25.0005 11.2288 24.8356 11.4038C24.6699 11.5788 24.4607 11.6663 24.2079 11.6663ZM5.83295 22.0204C5.58017 22.0204 5.37134 21.9329 5.20645 21.7579C5.04078 21.5829 4.95795 21.3788 4.95795 21.1454C4.95795 20.8927 5.04078 20.6834 5.20645 20.5178C5.37134 20.3529 5.58017 20.2704 5.83295 20.2704H7.29128V11.8121C7.29128 10.2566 7.77739 8.86122 8.74961 7.62611C9.72184 6.39178 10.9857 5.59961 12.5413 5.24961V4.43294C12.5413 4.02461 12.6824 3.67928 12.9648 3.39694C13.2463 3.11539 13.5913 2.97461 13.9996 2.97461C14.4079 2.97461 14.7529 3.11539 15.0344 3.39694C15.3168 3.67928 15.4579 4.02461 15.4579 4.43294V5.24961C17.0135 5.59961 18.2774 6.39178 19.2496 7.62611C20.2218 8.86122 20.7079 10.2566 20.7079 11.8121V20.2704H22.1663C22.4191 20.2704 22.6283 20.3529 22.7939 20.5178C22.9588 20.6834 23.0413 20.8927 23.0413 21.1454C23.0413 21.3788 22.9588 21.5829 22.7939 21.7579C22.6283 21.9329 22.4191 22.0204 22.1663 22.0204H5.83295ZM13.9996 25.4329C13.4163 25.4329 12.9204 25.2288 12.5121 24.8204C12.1038 24.4121 11.8996 23.9163 11.8996 23.3329H16.0996C16.0996 23.9163 15.8954 24.4121 15.4871 24.8204C15.0788 25.2288 14.5829 25.4329 13.9996 25.4329ZM9.04128 20.2704H18.9579V11.8121C18.9579 10.4316 18.4718 9.25983 17.4996 8.29694C16.5274 7.33483 15.3607 6.85378 13.9996 6.85378C12.6385 6.85378 11.4718 7.33483 10.4996 8.29694C9.52739 9.25983 9.04128 10.4316 9.04128 11.8121V20.2704Z" fill="#1DA1F2"/>
</svg>
