<svg width="28" height="28" viewBox="0 0 28 28" fill="none" xmlns="http://www.w3.org/2000/svg">
<path d="M13.9712 25.0827C12.4545 25.0827 11.0253 24.791 9.68366 24.2077C8.34199 23.6243 7.17027 22.8318 6.16849 21.83C5.16749 20.829 4.37533 19.653 3.79199 18.302C3.20866 16.9502 2.91699 15.516 2.91699 13.9993C2.91699 12.4632 3.21838 11.0193 3.82116 9.66752C4.42394 8.31651 5.23594 7.14518 6.25716 6.15352C7.2776 5.16185 8.4781 4.37435 9.85866 3.79102C11.2392 3.20768 12.7073 2.91602 14.2628 2.91602C15.7212 2.91602 17.1017 3.16374 18.4045 3.65918C19.7073 4.1554 20.8545 4.84568 21.8462 5.73002C22.8378 6.61513 23.6253 7.66046 24.2087 8.86602C24.792 10.0716 25.0837 11.3841 25.0837 12.8035C25.0837 14.8257 24.4855 16.4054 23.2893 17.5425C22.0939 18.6804 20.5531 19.2493 18.667 19.2493H16.567C16.217 19.2493 15.9448 19.3563 15.7503 19.5702C15.5559 19.7841 15.4587 20.0466 15.4587 20.3577C15.4587 20.7077 15.6045 21.0771 15.8962 21.466C16.1878 21.8549 16.3337 22.3021 16.3337 22.8077C16.3337 23.5855 16.1198 24.1591 15.692 24.5285C15.2642 24.898 14.6906 25.0827 13.9712 25.0827ZM7.58366 14.8743C7.99199 14.8743 8.33733 14.7332 8.61966 14.4508C8.90121 14.1693 9.04199 13.8243 9.04199 13.416C9.04199 13.0077 8.90121 12.6627 8.61966 12.3812C8.33733 12.0988 7.99199 11.9577 7.58366 11.9577C7.17533 11.9577 6.83038 12.0988 6.54883 12.3812C6.26649 12.6627 6.12533 13.0077 6.12533 13.416C6.12533 13.8243 6.26649 14.1693 6.54883 14.4508C6.83038 14.7332 7.17533 14.8743 7.58366 14.8743ZM11.0837 10.2077C11.492 10.2077 11.8369 10.0665 12.1185 9.78418C12.4008 9.50263 12.542 9.15768 12.542 8.74935C12.542 8.34102 12.4008 7.99568 12.1185 7.71335C11.8369 7.43179 11.492 7.29102 11.0837 7.29102C10.6753 7.29102 10.3304 7.43179 10.0488 7.71335C9.76649 7.99568 9.62533 8.34102 9.62533 8.74935C9.62533 9.15768 9.76649 9.50263 10.0488 9.78418C10.3304 10.0665 10.6753 10.2077 11.0837 10.2077ZM16.917 10.2077C17.3253 10.2077 17.6703 10.0665 17.9518 9.78418C18.2342 9.50263 18.3753 9.15768 18.3753 8.74935C18.3753 8.34102 18.2342 7.99568 17.9518 7.71335C17.6703 7.43179 17.3253 7.29102 16.917 7.29102C16.5087 7.29102 16.1637 7.43179 15.8822 7.71335C15.5998 7.99568 15.4587 8.34102 15.4587 8.74935C15.4587 9.15768 15.5998 9.50263 15.8822 9.78418C16.1637 10.0665 16.5087 10.2077 16.917 10.2077ZM20.417 14.8743C20.8253 14.8743 21.1707 14.7332 21.453 14.4508C21.7345 14.1693 21.8753 13.8243 21.8753 13.416C21.8753 13.0077 21.7345 12.6627 21.453 12.3812C21.1707 12.0988 20.8253 11.9577 20.417 11.9577C20.0087 11.9577 19.6637 12.0988 19.3822 12.3812C19.0998 12.6627 18.9587 13.0077 18.9587 13.416C18.9587 13.8243 19.0998 14.1693 19.3822 14.4508C19.6637 14.7332 20.0087 14.8743 20.417 14.8743ZM13.9712 23.3327C14.1656 23.3327 14.3165 23.2841 14.4238 23.1868C14.5304 23.0896 14.5837 22.9632 14.5837 22.8077C14.5837 22.5355 14.4378 22.229 14.1462 21.8883C13.8545 21.5485 13.7087 21.0188 13.7087 20.2993C13.7087 19.4632 13.9906 18.7873 14.5545 18.2717C15.1184 17.7568 15.8087 17.4993 16.6253 17.4993H18.667C20.0475 17.4993 21.1707 17.0957 22.0363 16.2883C22.9012 15.4818 23.3337 14.3202 23.3337 12.8035C23.3337 10.4507 22.4295 8.50629 20.6212 6.97018C18.8128 5.43407 16.6934 4.66602 14.2628 4.66602C11.5989 4.66602 9.33366 5.57018 7.46699 7.37852C5.60033 9.18685 4.66699 11.3938 4.66699 13.9993C4.66699 16.5855 5.57621 18.7877 7.39466 20.6062C9.21233 22.4238 11.4045 23.3327 13.9712 23.3327Z" fill="#1DA1F2"/>
</svg>
