<svg width="28" height="28" viewBox="0 0 28 28" fill="none" xmlns="http://www.w3.org/2000/svg">
<path d="M21.1454 22.6048C20.7565 22.6048 20.431 22.4738 20.1689 22.2117C19.906 21.9488 19.7745 21.6229 19.7745 21.234V5.86315C19.7745 5.49371 19.906 5.17754 20.1689 4.91465C20.431 4.65254 20.7565 4.52148 21.1454 4.52148C21.5148 4.52148 21.831 4.65254 22.0939 4.91465C22.356 5.17754 22.487 5.49371 22.487 5.86315V21.234C22.487 21.6229 22.356 21.9488 22.0939 22.2117C21.831 22.4738 21.5148 22.6048 21.1454 22.6048ZM8.02038 22.6048C7.84538 22.6048 7.67543 22.571 7.51054 22.5033C7.34488 22.4349 7.19866 22.3377 7.07188 22.2117C6.94588 22.0849 6.84866 21.939 6.78021 21.7742C6.71254 21.6085 6.67871 21.4284 6.67871 21.234V17.5298C6.67871 17.1604 6.80977 16.8442 7.07188 16.5813C7.33477 16.3192 7.65093 16.1882 8.02038 16.1882C8.40927 16.1882 8.73516 16.3192 8.99804 16.5813C9.26016 16.8442 9.39121 17.1604 9.39121 17.5298V21.234C9.39121 21.4284 9.35232 21.6085 9.27454 21.7742C9.19677 21.939 9.09954 22.0849 8.98288 22.2117C8.86621 22.3377 8.72543 22.4349 8.56054 22.5033C8.39488 22.571 8.21482 22.6048 8.02038 22.6048ZM14.5829 22.6048C14.2134 22.6048 13.8977 22.4738 13.6355 22.2117C13.3727 21.9488 13.2412 21.6229 13.2412 21.234V11.6965C13.2412 11.327 13.3727 11.0109 13.6355 10.748C13.8977 10.4859 14.2134 10.3548 14.5829 10.3548C14.9523 10.3548 15.2681 10.4859 15.5302 10.748C15.7931 11.0109 15.9245 11.327 15.9245 11.6965V21.234C15.9245 21.6229 15.7931 21.9488 15.5302 22.2117C15.2681 22.4738 14.9523 22.6048 14.5829 22.6048Z" fill="#1DA1F2"/>
</svg>
