<svg width="28" height="28" viewBox="0 0 28 28" fill="none" xmlns="http://www.w3.org/2000/svg">
<path d="M8.83623 8.49981C8.30088 8.49981 7.84739 8.30985 7.47575 7.92992C7.1048 7.55 6.91933 7.10099 6.91933 6.58291C6.91933 6.06483 7.1048 5.61583 7.47575 5.2359C7.84739 4.85598 8.30088 4.66602 8.83623 4.66602C9.35431 4.66602 9.80331 4.85598 10.1832 5.2359C10.5632 5.61583 10.7531 6.06483 10.7531 6.58291C10.7531 7.10099 10.5632 7.55 10.1832 7.92992C9.80331 8.30985 9.35431 8.49981 8.83623 8.49981ZM15.9598 22.9025C15.7526 22.9025 15.5713 22.8292 15.4159 22.6828C15.2604 22.5357 15.1741 22.3585 15.1568 22.1512L14.846 12.6704L10.4941 11.5047H4.27712C4.06989 11.5047 3.88856 11.4311 3.73314 11.284C3.57771 11.1375 3.5 10.9521 3.5 10.7276C3.5 10.5031 3.57771 10.3172 3.73314 10.1701C3.88856 10.0237 4.06989 9.95044 4.27712 9.95044H9.84649L16.8665 4.97686C17.0392 4.85598 17.2205 4.80831 17.4105 4.83387C17.6004 4.86012 17.7645 4.95096 17.9026 5.10638C18.0581 5.29635 18.123 5.49494 18.0974 5.70218C18.0712 5.90941 17.9631 6.0821 17.7731 6.22026L13.8616 9.01789L17.255 9.48417L24.5341 5.13229C24.6895 5.04594 24.8536 5.02004 25.0262 5.05458C25.1989 5.08911 25.3544 5.19273 25.4925 5.36542C25.6307 5.52085 25.6866 5.69803 25.6604 5.89697C25.6348 6.09523 25.5357 6.2548 25.363 6.37568L17.4105 12.489L16.8147 22.1512C16.7974 22.3585 16.7111 22.5357 16.5556 22.6828C16.4002 22.8292 16.2016 22.9025 15.9598 22.9025Z" fill="#1DA1F2"/>
</svg>
