<svg width="26" height="14" viewBox="0 0 26 14" fill="none" xmlns="http://www.w3.org/2000/svg">
<path d="M7.16667 14C5.22223 14 3.56945 13.3194 2.20834 11.9583C0.847227 10.5972 0.166672 8.94444 0.166672 7C0.166672 5.05556 0.847227 3.40278 2.20834 2.04167C3.56945 0.680556 5.22223 0 7.16667 0H18.8333C20.7778 0 22.4306 0.680556 23.7917 2.04167C25.1528 3.40278 25.8333 5.05556 25.8333 7C25.8333 8.94444 25.1528 10.5972 23.7917 11.9583C22.4306 13.3194 20.7778 14 18.8333 14H7.16667ZM7.16667 11.6667H18.8333C20.1167 11.6667 21.2153 11.2097 22.1292 10.2958C23.0431 9.38194 23.5 8.28333 23.5 7C23.5 5.71667 23.0431 4.61806 22.1292 3.70417C21.2153 2.79028 20.1167 2.33333 18.8333 2.33333H7.16667C5.88334 2.33333 4.78473 2.79028 3.87084 3.70417C2.95695 4.61806 2.50001 5.71667 2.50001 7C2.50001 8.28333 2.95695 9.38194 3.87084 10.2958C4.78473 11.2097 5.88334 11.6667 7.16667 11.6667ZM18.8333 10.5C19.8056 10.5 20.6319 10.1597 21.3125 9.47917C21.9931 8.79861 22.3333 7.97222 22.3333 7C22.3333 6.02778 21.9931 5.20139 21.3125 4.52083C20.6319 3.84028 19.8056 3.5 18.8333 3.5C17.8611 3.5 17.0347 3.84028 16.3542 4.52083C15.6736 5.20139 15.3333 6.02778 15.3333 7C15.3333 7.97222 15.6736 8.79861 16.3542 9.47917C17.0347 10.1597 17.8611 10.5 18.8333 10.5Z" fill="#1DA1F2"/>
</svg>
