<svg width="24" height="24" viewBox="0 0 24 24" fill="none" xmlns="http://www.w3.org/2000/svg">
<path d="M18 8.28169C17.549 8.47735 17.0721 8.60669 16.584 8.66569C17.0989 8.35808 17.4848 7.87416 17.67 7.30369C17.1861 7.59173 16.6565 7.79467 16.104 7.90369C15.7347 7.50323 15.243 7.23667 14.7059 7.1458C14.1688 7.05493 13.6167 7.1449 13.1363 7.4016C12.6558 7.6583 12.2742 8.06721 12.0511 8.56419C11.8281 9.06117 11.7764 9.61812 11.904 10.1477C10.9257 10.0982 9.96866 9.84346 9.09519 9.40001C8.22172 8.95655 7.45131 8.3343 6.834 7.57369C6.61748 7.95179 6.50371 8.37998 6.504 8.81569C6.50323 9.22032 6.60253 9.61886 6.79305 9.97583C6.98358 10.3328 7.25941 10.6371 7.596 10.8617C7.20479 10.851 6.82193 10.7461 6.48 10.5557V10.5857C6.48293 11.1526 6.6816 11.7011 7.04239 12.1385C7.40318 12.5758 7.90395 12.8751 8.46 12.9857C8.24595 13.0508 8.02373 13.0852 7.8 13.0877C7.64513 13.0859 7.49065 13.0718 7.338 13.0457C7.49635 13.5334 7.80277 13.9596 8.21464 14.265C8.62652 14.5704 9.12335 14.7398 9.636 14.7497C8.77032 15.4308 7.70153 15.8026 6.6 15.8057C6.39944 15.8063 6.19904 15.7943 6 15.7697C7.12466 16.4958 8.43529 16.8813 9.774 16.8797C10.6978 16.8893 11.6143 16.7147 12.4699 16.3661C13.3255 16.0176 14.103 15.502 14.7571 14.8496C15.4112 14.1972 15.9288 13.4209 16.2795 12.5662C16.6303 11.7115 16.8072 10.7955 16.8 9.87169C16.8 9.76969 16.8 9.66169 16.8 9.55369C17.2708 9.20257 17.6769 8.77214 18 8.28169Z" fill="white"/>
<circle cx="12" cy="12" r="11.5" stroke="white"/>
</svg>
